<svg version="1.1" id="Layer_1" xmlns="http://www.w3.org/2000/svg" xmlns:xlink="http://www.w3.org/1999/xlink" x="0px" y="0px"
	 width="100%" viewBox="0 0 1200 1200" enable-background="new 0 0 1200 1200" xml:space="preserve">
<path fill="#F3D503" opacity="1.000000" stroke="none" 
	d="
M1095.000000,1201.000000 
	C730.000000,1201.000000 365.500000,1201.000000 1.000000,1201.000000 
	C1.000000,801.000000 1.000000,401.000000 1.000000,1.000000 
	C401.000000,1.000000 801.000000,1.000000 1201.000000,1.000000 
	C1201.000000,401.000000 1201.000000,801.000000 1201.000000,1201.000000 
	C1165.833374,1201.000000 1130.666626,1201.000000 1095.000000,1201.000000 
M444.006409,654.163391 
	C443.797424,653.940186 443.588440,653.717041 443.257080,652.667175 
	C443.753845,648.448364 444.250610,644.229614 444.777527,639.754639 
	C441.633545,639.754639 439.010742,639.754639 435.919952,639.754639 
	C434.193512,654.039368 432.469818,668.301208 430.728210,682.711365 
	C434.116089,682.711365 436.857727,682.711365 439.619751,682.711365 
	C440.044037,679.633911 440.236298,676.803101 440.858154,674.070068 
	C441.763275,670.091919 442.647461,666.042725 444.240448,662.323486 
	C444.793732,661.031738 447.429199,660.631836 449.113647,659.824585 
	C449.547089,661.460815 450.453247,663.133667 450.329834,664.726746 
	C449.862915,670.755554 449.062103,676.758484 448.382874,682.800659 
	C451.655457,682.800659 454.278992,682.800659 457.256470,682.800659 
	C458.074188,675.542053 459.279602,668.464172 459.556915,661.350220 
	C459.828400,654.386719 454.620087,650.897827 448.190552,653.102600 
	C446.945465,653.529541 445.804291,654.259399 444.006409,654.163391 
M334.723297,634.374451 
	C333.404053,634.223511 331.950897,633.636719 330.787750,633.994019 
	C324.370056,635.965637 322.737701,631.870300 321.532104,626.914124 
	C325.009644,623.162903 329.225098,621.229004 334.403290,622.421204 
	C338.912292,623.459351 343.346313,624.823120 347.813477,626.043030 
	C347.973938,625.522827 348.134369,625.002625 348.294830,624.482422 
	C342.917542,622.712341 337.540253,620.942261 332.162964,619.172241 
	C332.231323,618.671875 332.299683,618.171448 332.368073,617.671082 
	C335.233337,617.965942 338.095032,618.304016 340.965027,618.541809 
	C343.204071,618.727295 345.453461,618.788208 347.698242,618.904541 
	C346.325897,617.198975 344.946503,615.498962 343.589386,613.781372 
	C343.402161,613.544434 343.325409,613.220215 343.200012,612.941895 
	C347.835815,608.997620 347.372925,604.638672 341.779694,600.594543 
	C333.824371,594.842468 325.800385,589.185425 317.823547,583.463074 
	C306.745178,575.515686 310.093262,574.136658 301.047272,587.033142 
	C299.130615,589.765625 299.966248,591.387207 302.892059,592.145569 
	C304.610229,592.590881 306.444458,592.567383 308.208160,592.863831 
	C309.906433,593.149292 311.581055,593.575256 313.914062,594.079529 
	C306.408295,601.292297 306.414764,601.279541 298.620850,597.324463 
	C295.959167,595.973816 293.242920,594.731140 290.574097,593.394165 
	C278.443176,587.316895 280.619507,589.859863 282.102356,578.040161 
	C282.131592,577.807190 282.449921,577.610535 282.874237,577.116638 
	C283.909637,578.650085 285.121155,580.002014 285.828033,581.580078 
	C287.482544,585.273743 289.406342,585.950195 293.084412,583.678955 
	C301.185211,578.676758 304.039520,571.076843 304.399933,562.244629 
	C304.704742,554.775696 301.649597,549.038513 294.467255,545.934448 
	C287.280487,542.828491 281.510010,545.081360 276.586365,550.561523 
	C275.487823,551.784241 274.563843,553.163818 273.559509,554.471191 
	C273.275787,553.877502 272.992096,553.283752 272.708374,552.690063 
	C270.040588,552.981018 267.043335,552.585266 264.761139,553.680054 
	C253.983307,558.850037 243.359863,564.348999 232.763428,569.887634 
	C225.370712,573.751770 218.974197,578.681152 216.716141,587.599060 
	C211.690735,586.666504 206.813583,586.300110 202.321594,584.788879 
	C196.950668,582.981873 194.482941,585.201477 192.161896,589.570435 
	C190.509308,592.681091 191.000031,594.275391 194.256577,594.941711 
	C199.416580,595.997559 203.116821,599.166199 206.621521,602.806213 
	C210.202850,606.525757 214.202850,609.867126 217.565170,613.765930 
	C221.117401,617.884949 225.413589,619.942139 230.671356,619.720642 
	C235.653503,619.510803 238.393738,622.381287 241.109741,625.879517 
	C239.489014,626.788391 238.190781,627.516418 236.892548,628.244446 
	C236.946167,628.829346 236.999786,629.414307 237.053406,629.999207 
	C239.254822,630.140503 242.465973,631.218689 243.413971,630.197083 
	C244.738205,628.769897 245.515366,624.799683 244.518539,623.632385 
	C241.414505,619.997498 238.491074,615.446960 232.573608,615.767944 
	C227.263824,616.055969 223.321060,613.773743 219.463776,610.015869 
	C212.432922,603.166138 206.802887,594.539734 196.791611,590.379028 
	C198.124039,589.435547 199.646622,588.643127 200.872787,588.968323 
	C205.779419,590.269836 212.800125,590.459045 214.975296,593.747559 
	C219.270248,600.240845 226.004608,606.753906 234.091812,606.885925 
	C242.014572,607.015381 249.941086,606.914185 258.490021,606.914185 
	C257.569275,610.361511 257.067444,613.323242 255.989594,616.057922 
	C253.493164,622.391907 250.704117,628.610168 248.062820,634.887573 
	C246.992035,637.432495 246.036255,640.171387 249.099991,641.939392 
	C254.136185,644.845764 259.282745,647.570618 264.465485,650.209473 
	C267.400299,651.703674 270.558990,651.222229 271.501617,648.036255 
	C271.978058,646.426025 270.281067,643.646790 268.814789,642.116577 
	C266.839081,640.054688 264.138031,638.687805 261.449005,636.814026 
	C266.352875,629.310364 271.083038,622.463928 275.376862,615.354004 
	C277.912750,611.154968 279.757996,606.538818 282.079620,601.769836 
	C286.643463,603.627869 292.416748,606.134521 298.323883,608.271179 
	C299.769714,608.794189 302.080383,608.707947 303.261932,607.870117 
	C308.275543,604.314880 313.046051,600.411377 317.838013,596.551392 
	C319.982025,594.824463 319.677124,593.035828 317.263947,591.926208 
	C313.703094,590.288879 310.030334,588.895020 306.036041,587.244934 
	C306.732330,586.232239 307.979126,584.418823 309.269318,582.542236 
	C319.704620,589.936279 329.759430,597.002441 339.721191,604.197388 
	C340.889404,605.041077 341.545166,606.594299 341.636200,606.719055 
	C337.742096,614.679688 330.702881,613.090332 324.760101,614.496277 
	C324.597992,614.534668 324.417603,614.546570 324.279663,614.628174 
	C323.088501,615.332642 321.905121,616.050415 320.719421,616.764160 
	C321.466888,617.844604 322.214355,618.925049 323.404297,620.645142 
	C317.464996,624.446960 311.323608,628.378174 304.969788,632.445374 
	C306.122986,633.497864 307.223999,634.502808 308.405975,635.581543 
	C305.826935,639.374573 303.437531,642.888672 301.048126,646.402771 
	C300.522614,646.259827 299.997101,646.116882 299.471619,645.973938 
	C299.278870,639.625183 299.531860,633.312561 302.332153,627.248840 
	C303.210114,625.347656 305.078217,623.361816 304.830963,621.655579 
	C304.635681,620.307861 301.894318,619.329102 300.812378,618.561523 
	C304.450073,616.524963 308.433868,614.563599 312.093018,612.116821 
	C313.606384,611.104919 314.423889,609.052307 315.557861,607.473022 
	C313.687134,607.904663 311.727417,608.112244 309.963623,608.813049 
	C305.867767,610.440552 301.891235,612.366394 297.812958,614.041321 
	C296.446136,614.602661 294.819519,614.558105 293.488739,615.173462 
	C291.965027,615.878052 290.638489,617.009033 289.226257,617.954773 
	C290.485504,618.876526 291.638672,620.030396 293.028809,620.665771 
	C295.122559,621.622864 297.381989,622.217468 299.587402,622.971802 
	C294.202240,635.840881 292.673676,649.735107 301.414612,652.966187 
	C306.641968,645.477173 311.955139,637.865173 317.768250,629.537048 
	C319.193451,632.664062 320.058075,634.561157 320.949921,636.517883 
	C313.978058,641.816406 311.238190,648.538940 313.423431,656.845032 
	C315.504333,664.754639 323.523193,670.257690 331.571106,669.626648 
	C339.934906,668.970825 346.963806,662.638977 348.077118,654.757568 
	C349.390137,645.462402 344.759888,638.076416 334.723297,634.374451 
M568.750793,548.501770 
	C568.985352,547.550171 569.219910,546.598511 569.454529,545.646912 
	C569.722656,545.681702 569.990845,545.716553 570.259033,545.751343 
	C570.259033,562.011902 570.259033,578.272461 570.259033,594.644775 
	C574.238831,594.644775 577.788940,594.644775 581.284790,594.644775 
	C581.284790,569.608093 581.284790,544.895325 581.284790,520.114380 
	C575.579468,520.114380 570.294434,520.114380 564.616882,520.114380 
	C562.305786,536.579041 560.015320,552.896973 557.724854,569.214844 
	C557.327087,569.236572 556.929321,569.258240 556.531555,569.279968 
	C554.208618,552.998474 551.885742,536.717041 549.529480,520.201904 
	C543.906677,520.201904 538.497375,520.201904 532.947754,520.201904 
	C532.947754,545.142151 532.947754,569.910034 532.947754,594.787842 
	C536.315857,594.787842 539.422913,594.787842 542.921387,594.787842 
	C542.921387,577.333435 542.921387,560.073914 542.921387,542.814331 
	C543.213074,542.788696 543.504761,542.763062 543.796448,542.737427 
	C546.457458,560.045410 549.118469,577.353455 551.793335,594.751343 
	C555.269226,594.751343 558.377197,594.751343 561.701294,594.751343 
	C564.005005,579.495789 566.282715,564.412415 568.750793,548.501770 
M416.436737,524.047668 
	C414.230103,522.966248 412.091583,521.148499 409.804535,520.937073 
	C401.943390,520.210205 394.030273,520.045471 386.093292,519.664490 
	C386.093292,545.212036 386.093292,569.926575 386.093292,594.837097 
	C393.335205,594.837097 400.304749,595.096252 407.244080,594.749756 
	C412.203827,594.502197 416.619537,592.510315 419.460449,588.060730 
	C425.015076,579.360962 422.369995,561.546265 414.561707,554.922729 
	C422.464935,547.430969 423.557617,533.596497 416.436737,524.047668 
M485.768066,585.690735 
	C482.827087,576.006531 480.363800,566.141235 476.783295,556.699524 
	C474.242462,549.999390 474.851318,544.497131 478.534210,538.532532 
	C482.099426,532.758545 484.815247,526.460144 488.056793,520.092102 
	C483.636475,520.092102 479.990234,520.092102 476.263245,520.092102 
	C471.748199,529.454895 467.265900,538.749756 462.783630,548.044556 
	C462.313263,547.940552 461.842865,547.836548 461.372498,547.732544 
	C461.372498,538.550842 461.372498,529.369141 461.372498,520.269226 
	C457.024963,520.269226 453.432617,520.269226 449.807678,520.269226 
	C449.807678,545.282227 449.807678,570.012878 449.807678,594.781372 
	C453.795654,594.781372 457.403229,594.781372 460.946472,594.781372 
	C463.201355,584.260681 457.762268,572.721008 466.185120,562.742920 
	C469.587524,573.876892 472.807983,584.415466 475.988586,594.823669 
	C480.271027,594.823669 484.074615,594.823669 488.248230,594.823669 
	C487.443817,591.867676 486.711151,589.175354 485.768066,585.690735 
M590.132385,593.158691 
	C590.582458,593.732056 591.027954,594.801758 591.483276,594.805908 
	C601.719116,594.900879 611.955994,594.878784 622.236877,594.878784 
	C622.236877,590.936218 622.236877,587.663513 622.236877,583.871033 
	C615.433289,583.871033 608.873291,583.871033 602.426758,583.871033 
	C602.426758,575.957214 602.426758,568.572449 602.426758,560.739136 
	C607.883606,560.739136 612.959106,560.739136 617.834839,560.739136 
	C617.834839,557.009460 617.834839,553.746765 617.834839,550.004456 
	C612.461975,550.004456 607.392456,550.004456 602.251526,550.004456 
	C602.251526,543.407715 602.251526,537.314331 602.251526,530.796509 
	C608.887390,530.796509 615.311218,530.796509 622.049255,530.796509 
	C622.049255,526.975891 622.049255,523.581604 622.049255,520.135376 
	C611.349731,520.135376 600.925903,520.135376 590.116394,520.135376 
	C590.116394,544.335693 590.116394,568.273621 590.132385,593.158691 
M287.511688,657.913391 
	C289.230865,657.300537 291.033875,656.845642 292.629120,655.999146 
	C293.293396,655.646606 293.514740,654.459412 293.937469,653.651733 
	C293.116058,653.234802 292.032501,652.247192 291.512360,652.486206 
	C283.213776,656.298340 273.176727,654.249817 265.502106,660.259766 
	C264.397949,661.124390 262.382324,661.538208 261.004395,661.221497 
	C253.567566,659.511963 245.895203,658.263672 238.869156,655.446838 
	C223.765335,649.391479 208.988174,642.516846 194.114227,635.894653 
	C186.705978,632.596313 186.371933,631.590515 189.077164,622.604553 
	C203.544769,630.334229 217.941101,638.025818 232.337433,645.717407 
	C232.638000,645.145020 232.938568,644.572632 233.239120,644.000244 
	C218.881668,636.230225 204.524200,628.460144 190.065445,620.635315 
	C197.590958,615.360779 197.591843,615.359314 204.928986,619.772705 
	C214.475937,625.515320 223.899628,631.478516 233.621933,636.906982 
	C238.054993,639.382080 240.811203,642.298950 241.119186,647.521057 
	C241.200195,648.894653 242.361420,650.974792 243.506424,651.382202 
	C248.508484,653.162476 253.661331,654.552368 258.825867,655.811340 
	C259.736237,656.033203 260.963562,654.954651 262.044525,654.476746 
	C261.203400,653.622131 260.510193,652.347229 259.494171,651.989563 
	C256.049347,650.776917 252.532745,649.685486 248.961594,648.940796 
	C246.105759,648.345337 244.585510,647.003052 244.503265,644.058777 
	C244.378433,639.589844 241.859421,636.996460 238.085449,634.818542 
	C227.430420,628.669495 216.688416,622.596680 206.536179,615.678711 
	C200.476044,611.549133 195.985672,611.550110 189.718506,615.461731 
	C184.772949,618.548523 183.955002,622.127686 183.921005,626.928040 
	C183.889893,631.322144 181.057831,636.709351 188.415344,637.875671 
	C182.937866,651.349060 185.919189,661.703491 196.425522,667.025452 
	C206.873367,672.317688 216.397720,668.228943 224.808441,654.779480 
	C226.042419,655.206543 227.282272,655.690125 228.553757,656.067078 
	C239.208908,659.226440 249.858322,662.406555 260.543579,665.461182 
	C261.895081,665.847534 264.003021,666.176636 264.812286,665.460632 
	C271.127777,659.872742 279.338745,660.257874 287.511688,657.913391 
M507.507629,595.003967 
	C513.601074,595.003967 519.694519,595.003967 525.659668,595.003967 
	C525.659668,590.952087 525.659668,587.560852 525.659668,583.758667 
	C518.900391,583.758667 512.485168,583.758667 506.117065,583.758667 
	C506.117065,576.072449 506.117065,568.814453 506.117065,561.072144 
	C511.426208,561.072144 516.502991,561.072144 521.591003,561.072144 
	C521.591003,557.209167 521.591003,553.847717 521.591003,549.983826 
	C516.161987,549.983826 511.105896,549.983826 506.123962,549.983826 
	C506.123962,543.384155 506.123962,537.301758 506.123962,530.744507 
	C512.809814,530.744507 519.217468,530.744507 525.655762,530.744507 
	C525.655762,526.877625 525.655762,523.502563 525.655762,520.291870 
	C514.900635,520.291870 504.499115,520.291870 493.913483,520.291870 
	C493.913483,532.935608 493.913483,545.237305 493.913483,557.539001 
	C493.913483,569.947937 493.913483,582.356873 493.913483,595.004272 
	C498.562775,595.004272 502.536926,595.004272 507.507629,595.003967 
M428.997894,544.500000 
	C428.997894,561.229553 428.997894,577.959106 428.997894,594.703308 
	C433.277527,594.703308 437.000641,594.703308 440.969727,594.703308 
	C440.969727,582.130920 440.969696,569.855286 440.969696,557.579651 
	C440.969696,545.169250 440.969727,532.758850 440.969727,520.311523 
	C436.674103,520.311523 432.958374,520.311523 428.997894,520.311523 
	C428.997894,528.248840 428.997894,535.874390 428.997894,544.500000 
M728.306091,682.429810 
	C733.712097,684.079163 737.017822,682.458984 738.397766,676.661194 
	C739.195679,673.308899 740.907227,670.172424 742.223511,666.945374 
	C744.113953,662.310852 746.018982,657.682312 747.918030,653.050598 
	C741.854126,651.467712 738.709106,653.065186 737.627258,658.871582 
	C736.859070,662.994080 735.071289,666.926636 733.738586,670.943909 
	C732.296387,666.539124 731.693359,662.275513 731.091675,658.011658 
	C730.759399,655.656982 731.384705,652.848999 727.583801,652.523499 
	C723.993286,652.216003 722.126282,653.588013 721.054016,657.044006 
	C719.607605,661.705627 717.658386,666.211243 715.781921,671.161072 
	C715.211914,670.378418 714.938416,670.175110 714.918213,669.949219 
	C714.622559,666.639282 714.277771,663.330505 714.107117,660.013123 
	C713.695740,652.021057 713.730042,652.019287 704.817261,653.363708 
	C706.444519,663.130432 708.070435,672.888733 709.643250,682.328674 
	C715.469727,683.906189 718.724670,682.341736 720.119507,676.751953 
	C721.049866,673.023682 722.880554,669.519958 724.841309,664.570496 
	C726.028015,671.303955 726.945862,676.512085 728.306091,682.429810 
M400.586975,682.653442 
	C402.932373,677.273926 405.277771,671.894470 408.193451,665.206970 
	C409.333344,671.967407 410.248596,677.395325 411.328400,683.799194 
	C414.527802,682.890625 418.777039,682.900391 419.556519,681.260620 
	C423.866241,672.195068 427.330414,662.727600 431.122925,653.302124 
	C423.050323,652.280884 423.076141,652.288940 420.925598,659.177124 
	C419.634308,663.313110 418.247467,667.419250 416.903564,671.538818 
	C415.503845,666.694824 415.061707,662.046936 414.090118,657.512390 
	C413.727661,655.820862 412.417480,653.475159 411.032928,653.040100 
	C408.241943,652.163391 405.721619,652.867615 404.615997,656.567749 
	C403.090363,661.673645 400.870605,666.572083 398.948151,671.559448 
	C397.813171,666.354736 397.683105,661.389832 396.957794,656.513550 
	C396.762482,655.200317 394.947723,653.654785 393.534851,653.122620 
	C391.973755,652.534668 390.020355,652.988342 387.956848,652.988342 
	C389.674500,663.303894 391.299866,673.065125 392.942383,682.929565 
	C395.516418,682.929565 397.664001,682.929565 400.586975,682.653442 
M963.885681,647.075745 
	C963.562378,649.148132 963.239014,651.220459 962.908875,653.336731 
	C954.867859,650.938782 949.855774,652.437073 946.036194,659.056519 
	C944.182434,662.269104 942.941589,666.084717 942.440979,669.765686 
	C941.810852,674.399475 942.179260,679.378357 947.008545,682.006592 
	C951.744080,684.583801 955.600952,682.119751 959.089722,678.926086 
	C959.270081,678.760925 959.646179,678.809509 959.931152,678.758606 
	C959.773254,679.173645 959.615356,679.588745 959.457458,680.003784 
	C962.092651,681.051208 964.727905,682.098572 968.158752,683.462219 
	C970.070251,667.895081 971.817749,653.663269 973.596924,639.173096 
	C970.359497,639.173096 967.752197,639.173096 964.948730,639.173096 
	C964.606567,641.596863 964.282654,643.891785 963.885681,647.075745 
M528.137329,664.849731 
	C527.756470,666.967834 527.102661,669.079346 527.051758,671.205322 
	C526.946472,675.596802 527.244141,680.215881 531.716492,682.482544 
	C536.346619,684.829163 540.387695,682.857788 543.822571,679.410828 
	C544.028137,679.204529 544.420898,679.184753 544.880371,679.024597 
	C545.664673,684.411316 549.500610,682.954651 553.071350,682.777344 
	C554.826843,668.383423 556.559814,654.174377 558.294067,639.954956 
	C549.724365,639.118164 549.747375,639.121155 548.761841,646.671021 
	C548.452026,649.044861 547.982178,651.397705 547.582031,653.780945 
	C537.979126,651.034058 532.702148,653.982849 528.137329,664.849731 
M661.935547,666.160706 
	C661.774353,667.480408 661.640869,668.804260 661.446899,670.119141 
	C660.770935,674.701416 660.423706,679.410767 665.071716,682.111572 
	C669.645691,684.769470 673.678589,682.497803 677.359253,679.566589 
	C677.537842,679.424438 677.928284,679.548279 678.220093,679.548279 
	C678.084900,679.960632 677.949707,680.372986 677.814514,680.785339 
	C680.409302,681.649231 683.004089,682.513123 686.301819,683.611023 
	C687.621338,672.756226 688.811157,662.968628 690.015076,653.064941 
	C686.778137,653.064941 684.021729,653.064941 681.101624,653.064941 
	C680.684631,656.386169 680.499207,659.547729 679.847412,662.609924 
	C679.099915,666.121643 678.348572,669.749023 676.774597,672.916565 
	C676.047607,674.379456 673.362793,674.869568 671.565735,675.800781 
	C671.164368,674.011108 670.310059,672.186523 670.444824,670.438171 
	C670.887573,664.697449 671.689392,658.984436 672.366760,653.144104 
	C669.117004,653.144104 666.376221,653.144104 663.495728,653.144104 
	C662.971375,657.374817 662.482727,661.317383 661.935547,666.160706 
M790.732666,662.149475 
	C792.540955,661.314758 794.349243,660.480103 796.157471,659.645386 
	C796.445923,661.505554 797.094666,663.393005 796.955994,665.220764 
	C796.521057,670.953491 795.789734,676.663635 795.157593,682.527161 
	C798.362854,682.527161 801.082642,682.527161 804.002563,682.527161 
	C804.714783,676.484863 805.427063,670.718506 806.064941,664.943970 
	C806.567627,660.393738 807.038025,655.574524 802.140320,653.068176 
	C797.466125,650.675964 793.491943,653.058838 789.907104,656.112976 
	C789.717346,656.274658 789.361450,656.241150 788.783325,656.360291 
	C788.330444,650.514404 784.166260,653.494385 780.969116,652.859619 
	C779.818481,662.981628 778.705017,672.776245 777.580750,682.665894 
	C780.909729,682.665894 783.383789,682.665894 785.624146,682.665894 
	C787.189392,675.910156 788.706848,669.360962 790.732666,662.149475 
M465.437469,681.050903 
	C470.563324,684.596619 472.901703,684.320374 478.146942,680.435364 
	C481.818787,681.722778 484.549164,682.680115 487.699036,683.784485 
	C489.009827,672.925720 490.157166,663.420776 491.290222,654.034302 
	C481.597290,650.900208 472.959961,652.913635 467.557434,659.254150 
	C462.185242,665.558960 461.200958,673.525146 465.437469,681.050903 
M772.453491,677.134583 
	C773.411377,669.258606 774.369263,661.382629 775.310486,653.643433 
	C759.613281,648.075195 744.675598,659.276917 746.911499,675.250427 
	C747.936890,682.575623 754.445496,685.408997 760.540283,681.291931 
	C761.592224,680.581421 762.560425,679.746948 763.667725,678.892151 
	C764.711670,684.184082 768.311279,682.699280 771.682007,682.578369 
	C771.910706,680.879150 772.105713,679.430237 772.453491,677.134583 
M656.865417,671.157532 
	C657.034058,667.877258 657.807068,664.489014 657.244629,661.339294 
	C656.097107,654.912781 650.328186,651.301147 643.880798,652.283569 
	C633.319641,653.892883 626.393494,666.774292 630.837219,676.543518 
	C632.654297,680.538269 635.795166,682.676880 640.123962,683.088196 
	C647.326721,683.772583 652.747864,680.070312 656.865417,671.157532 
M869.450806,681.273804 
	C876.595276,684.194153 882.095520,683.096497 887.073608,677.756897 
	C891.922791,672.555542 893.544128,663.967773 890.677551,658.258728 
	C888.620911,654.162598 885.173157,652.166382 880.644714,651.991943 
	C874.154968,651.742065 868.254395,655.739075 865.496094,662.216187 
	C862.387512,669.515747 863.515808,675.921753 869.450806,681.273804 
M584.255493,656.263550 
	C579.079651,651.924194 573.228333,651.323730 567.735901,654.568298 
	C561.472534,658.268311 557.806946,666.805359 559.401428,673.979370 
	C560.784546,680.202881 565.286804,683.664795 571.644897,683.393494 
	C583.916992,682.870056 591.103638,668.285950 584.255493,656.263550 
M607.030090,671.677917 
	C611.766846,679.458740 606.026428,685.326233 603.356140,692.372253 
	C606.570129,691.981750 610.860535,691.811951 611.980713,689.840637 
	C618.740845,677.944031 624.775269,665.635010 631.135864,653.302185 
	C622.690125,652.289062 622.705322,652.295654 619.639221,659.356750 
	C618.299744,662.441467 616.883484,665.492859 615.502075,668.559326 
	C613.877869,665.542236 613.318970,662.672668 612.730774,659.809082 
	C611.106567,651.902527 610.451294,651.517883 602.161682,653.610107 
	C603.531677,658.734192 604.897827,663.858582 606.275757,668.979736 
	C606.448181,669.620605 606.682251,670.244812 607.030090,671.677917 
M974.202759,669.575317 
	C974.457214,675.725769 976.598206,680.598083 983.052979,682.479309 
	C989.084290,684.237061 995.614075,681.858215 999.579041,676.531799 
	C997.901428,673.315918 995.834961,673.140442 992.670227,674.885742 
	C987.181702,677.912292 983.936951,676.184387 983.504028,670.878235 
	C987.822266,669.583679 992.382385,668.893005 996.184692,666.815430 
	C998.359192,665.627319 1000.681213,662.025818 1000.428894,659.794617 
	C1000.146973,657.302063 997.440796,654.367310 995.015564,653.046326 
	C992.838440,651.860535 989.444397,651.953491 986.878296,652.613831 
	C978.724426,654.711853 975.370117,660.922058 974.202759,669.575317 
M347.441986,632.036072 
	C342.743683,628.064453 337.485870,625.723938 330.863831,626.885803 
	C331.931519,628.480957 333.298981,629.721985 334.876526,630.110657 
	C345.603516,632.754150 352.908356,641.958435 352.458374,652.531189 
	C351.999207,663.318298 344.145844,671.934021 333.297913,673.551575 
	C323.133820,675.067139 313.306641,668.858643 309.637878,658.588379 
	C309.192932,657.342773 309.019501,655.949402 308.345093,654.855835 
	C307.948273,654.212402 306.821777,653.781677 306.003082,653.747803 
	C305.656097,653.733398 304.960205,654.977905 304.948151,655.659546 
	C304.928162,656.789307 305.252441,657.949829 305.571289,659.057129 
	C308.636261,669.700867 317.615662,676.909668 328.861755,677.792542 
	C339.378082,678.618225 350.059509,672.075134 354.427124,662.132141 
	C358.836792,652.093384 356.361511,640.734924 347.441986,632.036072 
M849.962524,648.460754 
	C848.421692,650.399170 846.880859,652.337585 845.340088,654.276001 
	C844.850037,654.040833 844.359985,653.805664 843.869934,653.570496 
	C844.055969,655.133728 843.868652,657.872314 844.488647,658.069275 
	C848.479858,659.337036 846.776489,662.204651 846.614990,664.527832 
	C846.384888,667.836121 845.783630,671.117432 845.513977,674.424316 
	C845.044495,680.183411 848.559204,683.645630 854.293823,682.881470 
	C856.518555,682.585022 858.647278,681.567627 860.819702,680.878662 
	C861.049866,680.328857 861.280029,679.779053 861.510193,679.229248 
	C859.649231,678.109253 857.703796,677.103394 855.965820,675.817200 
	C855.187927,675.241577 854.284180,674.049927 854.365051,673.229126 
	C854.845825,668.346619 855.597961,663.490845 856.289062,658.404785 
	C858.671143,658.404785 860.623352,658.404785 862.897278,658.404785 
	C863.027344,656.410889 863.139709,654.688354 863.256958,652.891541 
	C860.893066,652.600952 859.017212,652.370361 856.943665,652.115479 
	C857.275635,649.265564 857.560791,646.817322 857.844788,644.378784 
	C851.993530,643.400635 851.993530,643.400635 849.962524,648.460754 
M508.138855,682.783569 
	C509.266846,682.178528 510.394836,681.573425 512.793640,680.286743 
	C510.020355,678.114807 507.939789,676.485352 505.049408,674.221619 
	C505.593018,669.961731 506.290039,664.499634 506.971558,659.159058 
	C509.604340,659.020569 511.568024,658.917236 513.747375,658.802551 
	C513.871582,656.850037 513.982666,655.104004 514.103638,653.203064 
	C511.850769,653.026550 509.933655,652.876343 507.876617,652.715149 
	C508.054291,649.864563 508.216034,647.270142 508.385162,644.556824 
	C504.083435,643.456543 501.521545,644.396057 500.665497,648.956848 
	C500.382843,650.462891 498.923981,651.795837 497.863770,653.094482 
	C496.846771,654.340210 494.895020,655.357910 494.758881,656.626587 
	C494.639832,657.736267 496.473480,659.055420 497.848602,660.792603 
	C497.472290,663.977783 497.088440,667.932312 496.524231,671.860901 
	C495.195312,681.114380 498.147034,684.161316 508.138855,682.783569 
M817.277039,645.536560 
	C815.941101,648.014221 814.723572,650.566772 813.222412,652.940002 
	C812.390808,654.254822 810.292419,655.222534 810.220215,656.433533 
	C810.150452,657.602905 811.949463,658.883728 813.274292,660.552185 
	C812.806335,664.972534 812.074158,670.074036 811.776672,675.200806 
	C811.468201,680.515930 814.308960,683.384155 819.606873,683.068604 
	C822.113464,682.919373 824.567261,681.883545 827.044983,681.249329 
	C827.232727,680.695374 827.420471,680.141418 827.608215,679.587463 
	C825.504211,677.929321 823.400208,676.271179 820.601013,674.065125 
	C821.112427,669.759949 821.747559,664.413818 822.389465,659.010986 
	C824.785828,658.878906 826.744690,658.770935 828.959473,658.648865 
	C829.225220,656.803772 829.473877,655.077393 829.751221,653.152039 
	C827.426880,652.914307 825.520081,652.719238 823.330139,652.495239 
	C823.588684,649.527039 823.821960,646.847900 824.110413,643.535706 
	C821.464050,644.084167 819.605103,644.469482 817.277039,645.536560 
M176.289383,651.204834 
	C177.509766,668.084351 192.320419,679.625854 208.055023,678.003723 
	C217.826981,676.996277 225.189117,672.058105 230.093842,663.585083 
	C230.596436,662.716797 230.145676,661.296692 230.137299,660.132568 
	C229.040665,660.543213 227.805634,660.762390 226.890533,661.424072 
	C226.137131,661.968750 225.801208,663.065857 225.215286,663.870850 
	C215.157516,677.689758 194.417908,677.422180 184.738815,663.324524 
	C180.327576,656.899536 179.444244,649.890869 181.251556,642.362854 
	C181.612274,640.860291 180.988052,639.121399 180.817978,637.491455 
	C179.740112,638.661316 178.087677,639.668884 177.701904,641.034302 
	C176.853592,644.036987 176.645355,647.220459 176.289383,651.204834 
M907.855408,668.970703 
	C907.335571,673.243652 906.815674,677.516602 906.253540,682.137085 
	C909.242249,682.137085 911.965332,682.137085 914.906616,682.137085 
	C915.515015,677.590576 915.884216,673.117188 916.759216,668.744934 
	C917.754761,663.770020 919.667664,659.395935 926.405090,660.627197 
	C926.815369,657.677612 927.166443,655.153625 927.517517,652.629578 
	C927.119324,652.275513 926.721130,651.921448 926.322876,651.567383 
	C923.581299,653.051819 920.839783,654.536316 917.969971,656.090149 
	C917.235046,651.758301 913.840820,652.133850 909.811768,652.978577 
	C909.195618,657.914551 908.561401,662.994690 907.855408,668.970703 
M1014.907104,639.902161 
	C1011.559082,641.040039 1008.211060,642.177856 1004.783264,643.342834 
	C1006.197815,647.455078 1007.289978,649.678162 1011.430603,647.485657 
	C1012.973145,646.668701 1015.574402,647.851257 1017.692871,648.122070 
	C1016.954529,650.302246 1016.354675,652.545349 1015.407532,654.630798 
	C1015.045349,655.428284 1013.899780,655.880188 1013.092468,656.463562 
	C1009.307678,659.198608 1008.057373,662.738098 1009.440308,667.166626 
	C1011.411377,667.166626 1013.158508,667.166626 1014.905640,667.166626 
	C1016.603088,663.446716 1018.816772,660.447571 1021.514282,657.976562 
	C1025.370850,654.443787 1027.276978,649.712280 1025.706543,645.560913 
	C1023.961121,640.946350 1020.140076,639.769714 1014.907104,639.902161 
M937.621704,671.360352 
	C938.325195,665.281738 939.028687,659.203186 939.767212,652.821716 
	C936.770691,652.821716 934.033020,652.821716 930.937134,652.821716 
	C929.809326,662.723206 928.698975,672.471802 927.589539,682.212158 
	C930.979004,682.212158 933.423401,682.212158 936.242737,682.212158 
	C936.672241,678.759949 937.077942,675.499390 937.621704,671.360352 
M932.885986,640.313049 
	C932.341003,642.093994 931.039551,644.053589 931.409241,645.618469 
	C932.168945,648.833862 934.883728,650.025574 937.997192,648.889954 
	C940.830688,647.856384 942.230469,645.502380 941.066528,642.547119 
	C939.672424,639.007568 937.001648,638.023682 932.885986,640.313049 
M1016.330383,677.584351 
	C1015.531738,673.717163 1012.997620,672.022644 1009.491333,673.511780 
	C1007.968079,674.158691 1006.166321,677.003479 1006.481018,678.402161 
	C1006.874390,680.150269 1009.121582,682.319580 1010.921631,682.720215 
	C1013.763367,683.352661 1015.928467,681.525818 1016.330383,677.584351 
M251.694336,538.492188 
	C248.961945,538.492188 246.229538,538.492188 243.497147,538.492188 
	C243.504059,538.970337 243.510971,539.448547 243.517883,539.926697 
	C252.606003,539.926697 261.694122,539.926697 270.782257,539.926697 
	C270.790283,539.448547 270.798279,538.970459 270.806305,538.492310 
	C264.751984,538.492310 258.697662,538.492310 251.694336,538.492188 
M234.256531,548.462036 
	C233.294083,548.715820 232.331650,548.969543 231.369202,549.223328 
	C231.413712,549.537415 231.458237,549.851562 231.502747,550.165649 
	C239.976440,550.165649 248.450134,550.165649 256.923828,550.165649 
	C256.940491,549.596680 256.957184,549.027649 256.973846,548.458679 
	C249.687531,548.458679 242.401215,548.458679 234.256531,548.462036 
M267.417114,528.391663 
	C266.711334,528.696411 266.005524,529.001221 263.919434,529.902100 
	C271.221558,529.902100 277.020294,529.902100 282.819031,529.902100 
	C282.819946,529.386841 282.820862,528.871582 282.821777,528.356323 
	C277.966492,528.356323 273.111176,528.356323 267.417114,528.391663 
M281.169312,638.656067 
	C278.039032,638.656067 274.908722,638.656067 271.778442,638.656067 
	C271.792969,639.200500 271.807495,639.744934 271.822021,640.289368 
	C276.234589,640.289368 280.647156,640.289368 285.059753,640.289368 
	C285.086273,639.954407 285.112793,639.619446 285.139313,639.284546 
	C284.105347,639.075684 283.071350,638.866821 281.169312,638.656067 
z"/>
<path fill="#121000" opacity="1.000000" stroke="none" 
	d="
M335.111145,634.533936 
	C344.759888,638.076416 349.390137,645.462402 348.077118,654.757568 
	C346.963806,662.638977 339.934906,668.970825 331.571106,669.626648 
	C323.523193,670.257690 315.504333,664.754639 313.423431,656.845032 
	C311.238190,648.538940 313.978058,641.816406 320.949921,636.517883 
	C320.058075,634.561157 319.193451,632.664062 317.768250,629.537048 
	C311.955139,637.865173 306.641968,645.477173 301.414612,652.966187 
	C292.673676,649.735107 294.202240,635.840881 299.587402,622.971802 
	C297.381989,622.217468 295.122559,621.622864 293.028809,620.665771 
	C291.638672,620.030396 290.485504,618.876526 289.226257,617.954712 
	C290.638489,617.009033 291.965027,615.878052 293.488739,615.173462 
	C294.819519,614.558105 296.446136,614.602661 297.812958,614.041321 
	C301.891235,612.366394 305.867767,610.440552 309.963623,608.813049 
	C311.727417,608.112244 313.687134,607.904663 315.557861,607.473022 
	C314.423889,609.052307 313.606384,611.104919 312.093018,612.116821 
	C308.433868,614.563599 304.450073,616.524963 300.812378,618.561523 
	C301.894318,619.329102 304.635681,620.307861 304.830963,621.655579 
	C305.078217,623.361816 303.210114,625.347656 302.332153,627.248840 
	C299.531860,633.312561 299.278870,639.625183 299.471619,645.973938 
	C299.997101,646.116882 300.522614,646.259827 301.048126,646.402771 
	C303.437531,642.888672 305.826935,639.374573 308.405975,635.581543 
	C307.223999,634.502808 306.122986,633.497864 304.969788,632.445374 
	C311.323608,628.378174 317.464996,624.446960 323.404297,620.645142 
	C322.214355,618.925049 321.466888,617.844604 320.719421,616.764160 
	C321.905121,616.050415 323.088501,615.332642 324.279663,614.628174 
	C324.417603,614.546570 324.597992,614.534668 324.760101,614.496277 
	C330.702881,613.090332 337.742096,614.679688 341.636200,606.719055 
	C341.545166,606.594299 340.889404,605.041077 339.721191,604.197388 
	C329.759430,597.002441 319.704620,589.936279 309.269318,582.542236 
	C307.979126,584.418823 306.732330,586.232239 306.036041,587.244934 
	C310.030334,588.895020 313.703094,590.288879 317.263947,591.926208 
	C319.677124,593.035828 319.982025,594.824463 317.838013,596.551392 
	C313.046051,600.411377 308.275543,604.314880 303.261932,607.870117 
	C302.080383,608.707947 299.769714,608.794189 298.323883,608.271179 
	C292.416748,606.134521 286.643463,603.627869 282.079620,601.769836 
	C279.757996,606.538818 277.912750,611.154968 275.376862,615.354004 
	C271.083038,622.463928 266.352875,629.310364 261.449005,636.814026 
	C264.138031,638.687805 266.839081,640.054688 268.814789,642.116577 
	C270.281067,643.646790 271.978058,646.426025 271.501617,648.036255 
	C270.558990,651.222229 267.400299,651.703674 264.465485,650.209473 
	C259.282745,647.570618 254.136185,644.845764 249.099991,641.939392 
	C246.036255,640.171387 246.992035,637.432495 248.062820,634.887573 
	C250.704117,628.610168 253.493164,622.391907 255.989594,616.057922 
	C257.067444,613.323242 257.569275,610.361511 258.490021,606.914185 
	C249.941086,606.914185 242.014572,607.015381 234.091812,606.885925 
	C226.004608,606.753906 219.270248,600.240845 214.975296,593.747559 
	C212.800125,590.459045 205.779419,590.269836 200.872787,588.968323 
	C199.646622,588.643127 198.124039,589.435547 196.791611,590.379028 
	C206.802887,594.539734 212.432922,603.166138 219.463776,610.015869 
	C223.321060,613.773743 227.263824,616.055969 232.573608,615.767944 
	C238.491074,615.446960 241.414505,619.997498 244.518539,623.632385 
	C245.515366,624.799683 244.738205,628.769897 243.413971,630.197083 
	C242.465973,631.218689 239.254822,630.140503 237.053406,629.999207 
	C236.999786,629.414307 236.946167,628.829346 236.892548,628.244446 
	C238.190781,627.516418 239.489014,626.788391 241.109741,625.879517 
	C238.393738,622.381287 235.653503,619.510803 230.671356,619.720642 
	C225.413589,619.942139 221.117401,617.884949 217.565170,613.765930 
	C214.202850,609.867126 210.202850,606.525757 206.621521,602.806213 
	C203.116821,599.166199 199.416580,595.997559 194.256577,594.941711 
	C191.000031,594.275391 190.509308,592.681091 192.161896,589.570435 
	C194.482941,585.201477 196.950668,582.981873 202.321594,584.788879 
	C206.813583,586.300110 211.690735,586.666504 216.716141,587.599060 
	C218.974197,578.681152 225.370712,573.751770 232.763428,569.887634 
	C243.359863,564.348999 253.983307,558.850037 264.761139,553.680054 
	C267.043335,552.585266 270.040588,552.981018 272.708374,552.690063 
	C272.992096,553.283752 273.275787,553.877502 273.559509,554.471191 
	C274.563843,553.163818 275.487823,551.784241 276.586365,550.561523 
	C281.510010,545.081360 287.280487,542.828491 294.467255,545.934448 
	C301.649597,549.038513 304.704742,554.775696 304.399933,562.244629 
	C304.039520,571.076843 301.185211,578.676758 293.084412,583.678955 
	C289.406342,585.950195 287.482544,585.273743 285.828033,581.580078 
	C285.121155,580.002014 283.909637,578.650085 282.874237,577.116638 
	C282.449921,577.610535 282.131592,577.807190 282.102356,578.040161 
	C280.619507,589.859863 278.443176,587.316895 290.574097,593.394165 
	C293.242920,594.731140 295.959167,595.973816 298.620850,597.324463 
	C306.414764,601.279541 306.408295,601.292297 313.914062,594.079529 
	C311.581055,593.575256 309.906433,593.149292 308.208160,592.863831 
	C306.444458,592.567383 304.610229,592.590881 302.892059,592.145569 
	C299.966248,591.387207 299.130615,589.765625 301.047272,587.033142 
	C310.093262,574.136658 306.745178,575.515686 317.823547,583.463074 
	C325.800385,589.185425 333.824371,594.842468 341.779694,600.594543 
	C347.372925,604.638672 347.835815,608.997620 343.200012,612.941895 
	C343.325409,613.220215 343.402161,613.544434 343.589386,613.781372 
	C344.946503,615.498962 346.325897,617.198975 347.698242,618.904541 
	C345.453461,618.788208 343.204071,618.727295 340.965027,618.541809 
	C338.095032,618.304016 335.233337,617.965942 332.368073,617.671082 
	C332.299683,618.171448 332.231323,618.671875 332.162964,619.172241 
	C337.540253,620.942261 342.917542,622.712341 348.294830,624.482422 
	C348.134369,625.002625 347.973938,625.522827 347.813477,626.043030 
	C343.346313,624.823120 338.912292,623.459351 334.403290,622.421204 
	C329.225098,621.229004 325.009644,623.162903 321.532104,626.914124 
	C322.737701,631.870300 324.370056,635.965637 330.787750,633.994019 
	C331.950897,633.636719 333.404053,634.223511 335.111145,634.533936 
M322.642273,663.937561 
	C327.944763,658.056641 333.411560,658.041016 339.522095,664.178833 
	C335.282104,656.315186 337.252838,650.962097 344.976166,646.942627 
	C335.516235,648.980042 331.862183,644.190552 330.821655,635.771667 
	C327.858704,640.845337 328.169220,644.557800 331.781891,648.178467 
	C333.027191,649.426575 333.677765,651.679932 333.723145,653.496033 
	C333.739624,654.155457 330.455536,655.795654 329.968353,655.399780 
	C328.548218,654.245789 326.990295,652.319763 326.926056,650.641296 
	C326.804718,647.471680 325.568695,646.525696 322.692200,646.692871 
	C320.668488,646.810364 318.632416,646.715515 315.197998,646.715515 
	C317.540894,648.492371 318.479156,649.439148 319.606476,650.016907 
	C323.796204,652.164307 324.616394,655.235840 322.829437,659.492859 
	C322.205078,660.980225 322.468353,662.840210 321.983948,664.347595 
	C322.088470,664.413330 322.193024,664.479126 322.642273,663.937561 
M267.645294,623.145020 
	C269.516937,620.393738 271.235931,617.522034 273.292542,614.916809 
	C277.318756,609.816589 280.964233,604.747498 276.225159,597.624451 
	C283.675842,600.144592 290.423187,602.765381 297.013428,605.734802 
	C300.441010,607.279236 302.889648,606.836914 304.997803,603.558472 
	C299.551361,600.706238 294.407318,597.596375 288.936249,595.248535 
	C281.416718,592.021545 276.514954,587.820007 279.805786,578.745911 
	C280.159882,577.769531 279.373901,576.418884 279.611572,575.352051 
	C279.975586,573.718140 280.769958,572.180054 281.719635,569.729004 
	C284.740753,575.176575 286.958405,579.175476 289.719116,584.153564 
	C293.395142,580.783752 296.432739,577.999207 299.475311,575.210083 
	C297.420807,573.057922 296.058807,571.631226 294.696838,570.204529 
	C294.968048,569.933472 295.239288,569.662415 295.510498,569.391357 
	C297.081696,570.261658 298.652893,571.131897 300.224060,572.002197 
	C300.454285,571.672974 300.684509,571.343689 300.914734,571.014404 
	C299.147430,568.807983 297.380127,566.601562 295.612823,564.395142 
	C295.958069,564.119690 296.303314,563.844299 296.648560,563.568848 
	C298.175659,564.913879 299.702728,566.258850 301.752319,568.064087 
	C302.922058,560.914917 302.834198,554.838013 297.365295,550.142273 
	C293.576904,546.889465 288.816925,545.157471 284.410187,547.430298 
	C278.492676,550.482300 272.275665,554.184326 274.560120,563.165039 
	C273.105804,561.094238 271.996613,559.164490 271.416046,557.087097 
	C270.519562,553.879150 268.650940,553.688049 266.184479,555.015137 
	C252.889755,562.168457 239.573608,569.284546 226.382339,576.624634 
	C224.381561,577.737976 222.995651,579.956299 220.771820,582.229187 
	C224.922318,585.031799 228.314163,587.322144 231.705994,589.612488 
	C229.287201,589.813660 227.321152,589.163757 225.532379,588.188660 
	C223.727280,587.204529 222.098068,585.897827 220.411621,584.746033 
	C215.026352,592.041626 224.750595,603.610718 232.295792,603.720032 
	C238.272751,603.806641 244.261383,603.640259 250.232849,603.344543 
	C253.792999,603.168274 257.330048,602.525330 261.311920,602.039124 
	C261.015350,603.956848 261.012787,605.309021 260.587463,606.511658 
	C257.276611,615.873291 254.076385,625.282227 250.416290,634.507690 
	C249.081482,637.872192 248.750687,639.942871 252.588242,641.541687 
	C255.638748,642.812500 258.352997,644.879272 261.384094,646.211426 
	C263.978668,647.351746 266.557404,650.946777 269.463684,647.266724 
	C269.731995,646.926941 266.575500,643.307129 264.551849,641.842102 
	C258.800354,637.678345 258.694763,637.799744 262.263550,631.814758 
	C263.882111,629.100342 265.560669,626.421692 267.645294,623.145020 
M346.250549,651.804260 
	C345.548431,651.390442 344.598602,650.447449 344.181580,650.642639 
	C338.610046,653.250610 338.321259,654.718811 342.957245,662.419800 
	C344.037445,659.154968 345.117615,655.890137 346.250549,651.804260 
M315.172577,655.843689 
	C316.333252,658.080505 317.493927,660.317322 318.954193,663.131470 
	C322.863068,654.011108 322.713074,653.581299 314.751282,650.062500 
	C314.852142,651.875854 314.940460,653.464111 315.172577,655.843689 
M328.252808,667.302917 
	C331.111420,667.058350 333.970001,666.813782 337.914673,666.476257 
	C330.231049,659.876465 329.696777,659.895569 324.237579,666.049316 
	C325.389221,666.460388 326.447876,666.838257 328.252808,667.302917 
M343.487366,643.154602 
	C340.884949,640.017639 338.214630,636.995667 333.513306,636.995605 
	C335.330444,645.477600 336.324097,646.123352 343.487366,643.154602 
M323.067139,640.829773 
	C320.504578,638.929565 319.333405,639.702942 317.589203,644.492004 
	C319.701782,644.492004 321.790710,644.492004 324.306091,644.492004 
	C323.931274,643.299805 323.652679,642.413513 323.067139,640.829773 
M305.249268,588.388367 
	C305.434418,588.461426 305.619537,588.534485 305.804688,588.607544 
	C305.751160,588.412964 305.697632,588.218445 305.249268,588.388367 
z"/>
<path fill="#060600" opacity="1.000000" stroke="none" 
	d="
M568.655640,548.915405 
	C566.282715,564.412415 564.005005,579.495789 561.701294,594.751343 
	C558.377197,594.751343 555.269226,594.751343 551.793335,594.751343 
	C549.118469,577.353455 546.457458,560.045410 543.796448,542.737427 
	C543.504761,542.763062 543.213074,542.788696 542.921387,542.814331 
	C542.921387,560.073914 542.921387,577.333435 542.921387,594.787842 
	C539.422913,594.787842 536.315857,594.787842 532.947754,594.787842 
	C532.947754,569.910034 532.947754,545.142151 532.947754,520.201904 
	C538.497375,520.201904 543.906677,520.201904 549.529480,520.201904 
	C551.885742,536.717041 554.208618,552.998474 556.531555,569.279968 
	C556.929321,569.258240 557.327087,569.236572 557.724854,569.214844 
	C560.015320,552.896973 562.305786,536.579041 564.616882,520.114380 
	C570.294434,520.114380 575.579468,520.114380 581.284790,520.114380 
	C581.284790,544.895325 581.284790,569.608093 581.284790,594.644775 
	C577.788940,594.644775 574.238831,594.644775 570.259033,594.644775 
	C570.259033,578.272461 570.259033,562.011902 570.259033,545.751343 
	C569.990845,545.716553 569.722656,545.681702 569.454529,545.646912 
	C569.219910,546.598511 568.985352,547.550171 568.655640,548.915405 
z"/>
<path fill="#050400" opacity="1.000000" stroke="none" 
	d="
M416.697937,524.308350 
	C423.557617,533.596497 422.464935,547.430969 414.561707,554.922729 
	C422.369995,561.546265 425.015076,579.360962 419.460449,588.060730 
	C416.619537,592.510315 412.203827,594.502197 407.244080,594.749756 
	C400.304749,595.096252 393.335205,594.837097 386.093292,594.837097 
	C386.093292,569.926575 386.093292,545.212036 386.093292,519.664490 
	C394.030273,520.045471 401.943390,520.210205 409.804535,520.937073 
	C412.091583,521.148499 414.230103,522.966248 416.697937,524.308350 
M410.288361,578.129211 
	C410.314026,575.800903 410.396210,573.471680 410.355438,571.144531 
	C410.197449,562.124939 407.200623,559.859253 398.174225,561.850159 
	C398.174225,569.233826 398.174225,576.603394 398.174225,584.248901 
	C402.932739,583.444214 408.759125,586.416748 410.288361,578.129211 
M402.208527,530.860107 
	C400.788849,530.972900 399.369171,531.085693 398.087921,531.187561 
	C398.087921,537.799988 398.087921,543.994141 398.087921,550.133545 
	C406.986694,551.111023 409.062683,549.369507 409.149994,541.180359 
	C409.164093,539.857300 409.165833,538.531128 409.094025,537.210693 
	C408.888123,533.424561 407.341003,530.869324 402.208527,530.860107 
z"/>
<path fill="#050400" opacity="1.000000" stroke="none" 
	d="
M485.873291,586.086914 
	C486.711151,589.175354 487.443817,591.867676 488.248230,594.823669 
	C484.074615,594.823669 480.271027,594.823669 475.988586,594.823669 
	C472.807983,584.415466 469.587524,573.876892 466.185120,562.742920 
	C457.762268,572.721008 463.201355,584.260681 460.946472,594.781372 
	C457.403229,594.781372 453.795654,594.781372 449.807678,594.781372 
	C449.807678,570.012878 449.807678,545.282227 449.807678,520.269226 
	C453.432617,520.269226 457.024963,520.269226 461.372498,520.269226 
	C461.372498,529.369141 461.372498,538.550842 461.372498,547.732544 
	C461.842865,547.836548 462.313263,547.940552 462.783630,548.044556 
	C467.265900,538.749756 471.748199,529.454895 476.263245,520.092102 
	C479.990234,520.092102 483.636475,520.092102 488.056793,520.092102 
	C484.815247,526.460144 482.099426,532.758545 478.534210,538.532532 
	C474.851318,544.497131 474.242462,549.999390 476.783295,556.699524 
	C480.363800,566.141235 482.827087,576.006531 485.873291,586.086914 
z"/>
<path fill="#040400" opacity="1.000000" stroke="none" 
	d="
M590.124390,592.685181 
	C590.116394,568.273621 590.116394,544.335693 590.116394,520.135376 
	C600.925903,520.135376 611.349731,520.135376 622.049255,520.135376 
	C622.049255,523.581604 622.049255,526.975891 622.049255,530.796509 
	C615.311218,530.796509 608.887390,530.796509 602.251526,530.796509 
	C602.251526,537.314331 602.251526,543.407715 602.251526,550.004456 
	C607.392456,550.004456 612.461975,550.004456 617.834839,550.004456 
	C617.834839,553.746765 617.834839,557.009460 617.834839,560.739136 
	C612.959106,560.739136 607.883606,560.739136 602.426758,560.739136 
	C602.426758,568.572449 602.426758,575.957214 602.426758,583.871033 
	C608.873291,583.871033 615.433289,583.871033 622.236877,583.871033 
	C622.236877,587.663513 622.236877,590.936218 622.236877,594.878784 
	C611.955994,594.878784 601.719116,594.900879 591.483276,594.805908 
	C591.027954,594.801758 590.582458,593.732056 590.124390,592.685181 
z"/>
<path fill="#110F00" opacity="1.000000" stroke="none" 
	d="
M287.121002,658.012939 
	C279.338745,660.257874 271.127777,659.872742 264.812286,665.460632 
	C264.003021,666.176636 261.895081,665.847534 260.543579,665.461182 
	C249.858322,662.406555 239.208908,659.226440 228.553757,656.067078 
	C227.282272,655.690125 226.042419,655.206543 224.808441,654.779480 
	C216.397720,668.228943 206.873367,672.317688 196.425522,667.025452 
	C185.919189,661.703491 182.937866,651.349060 188.415344,637.875671 
	C181.057831,636.709351 183.889893,631.322144 183.921005,626.928040 
	C183.955002,622.127686 184.772949,618.548523 189.718506,615.461731 
	C195.985672,611.550110 200.476044,611.549133 206.536179,615.678711 
	C216.688416,622.596680 227.430420,628.669495 238.085449,634.818542 
	C241.859421,636.996460 244.378433,639.589844 244.503265,644.058777 
	C244.585510,647.003052 246.105759,648.345337 248.961594,648.940796 
	C252.532745,649.685486 256.049347,650.776917 259.494171,651.989563 
	C260.510193,652.347229 261.203400,653.622131 262.044495,654.476685 
	C260.963562,654.954651 259.736237,656.033203 258.825867,655.811340 
	C253.661331,654.552368 248.508484,653.162476 243.506424,651.382202 
	C242.361420,650.974792 241.200195,648.894653 241.119186,647.521057 
	C240.811203,642.298950 238.054993,639.382080 233.621933,636.906982 
	C223.899628,631.478516 214.475937,625.515320 204.928986,619.772705 
	C197.591843,615.359314 197.590958,615.360779 190.065445,620.635315 
	C204.524200,628.460144 218.881668,636.230225 233.239120,644.000244 
	C232.938568,644.572632 232.638000,645.145020 232.337433,645.717407 
	C217.941101,638.025818 203.544769,630.334229 189.077164,622.604553 
	C186.371933,631.590515 186.705978,632.596313 194.114227,635.894653 
	C208.988174,642.516846 223.765335,649.391479 238.869156,655.446838 
	C245.895203,658.263672 253.567566,659.511963 261.004395,661.221497 
	C262.382324,661.538208 264.397949,661.124390 265.502106,660.259766 
	C273.176727,654.249817 283.213776,656.298340 291.512360,652.486206 
	C292.032501,652.247192 293.116058,653.234802 293.937500,653.651733 
	C293.514740,654.459412 293.293396,655.646606 292.629120,655.999146 
	C291.033875,656.845642 289.230865,657.300537 287.121002,658.012939 
M214.424149,651.250793 
	C212.918274,649.941833 211.412384,648.632812 210.753784,648.060303 
	C208.565018,650.198730 207.271606,651.984985 205.523010,652.918945 
	C204.802414,653.303833 202.120285,651.966431 202.037109,651.221741 
	C201.805573,649.148804 202.468170,646.976013 202.868515,644.216248 
	C198.316711,645.173157 193.421783,646.202209 188.136276,647.313354 
	C191.778610,649.632507 196.355759,651.025330 198.008560,654.027954 
	C199.655685,657.020142 198.369644,661.627075 198.369644,665.526001 
	C203.612122,657.291260 210.180298,657.302734 218.006302,661.485291 
	C216.796234,658.346375 215.586166,655.207520 214.424149,651.250793 
M194.990875,663.653015 
	C198.901184,656.088928 197.673584,653.745667 187.828156,650.609009 
	C187.928177,656.058594 190.329819,660.058716 194.990875,663.653015 
M209.686829,666.423462 
	C211.276230,665.776855 212.865646,665.130188 214.746475,664.365051 
	C207.966690,659.173706 205.221069,659.815918 202.436203,667.037476 
	C204.693649,666.923401 206.806122,666.816589 209.686829,666.423462 
M189.088135,641.722595 
	C188.788315,642.649414 188.488480,643.576233 188.008194,645.060852 
	C191.663528,644.428406 194.890808,643.869934 198.118103,643.311523 
	C198.125671,642.815491 198.133240,642.319397 198.140823,641.823364 
	C195.015289,642.802856 193.216553,636.515625 189.088135,641.722595 
M220.150024,658.306824 
	C220.874146,656.761536 221.598267,655.216248 222.464554,653.367554 
	C220.284058,652.469482 218.616974,651.782837 216.949890,651.096252 
	C216.666550,651.400818 216.383224,651.705444 216.099884,652.010071 
	C217.251724,654.234131 218.403564,656.458130 220.150024,658.306824 
z"/>
<path fill="#030300" opacity="1.000000" stroke="none" 
	d="
M507.009338,595.004150 
	C502.536926,595.004272 498.562775,595.004272 493.913483,595.004272 
	C493.913483,582.356873 493.913483,569.947937 493.913483,557.539001 
	C493.913483,545.237305 493.913483,532.935608 493.913483,520.291870 
	C504.499115,520.291870 514.900635,520.291870 525.655762,520.291870 
	C525.655762,523.502563 525.655762,526.877625 525.655762,530.744507 
	C519.217468,530.744507 512.809814,530.744507 506.123962,530.744507 
	C506.123962,537.301758 506.123962,543.384155 506.123962,549.983826 
	C511.105896,549.983826 516.161987,549.983826 521.591003,549.983826 
	C521.591003,553.847717 521.591003,557.209167 521.591003,561.072144 
	C516.502991,561.072144 511.426208,561.072144 506.117065,561.072144 
	C506.117065,568.814453 506.117065,576.072449 506.117065,583.758667 
	C512.485168,583.758667 518.900391,583.758667 525.659668,583.758667 
	C525.659668,587.560852 525.659668,590.952087 525.659668,595.003967 
	C519.694519,595.003967 513.601074,595.003967 507.009338,595.004150 
z"/>
<path fill="#010100" opacity="1.000000" stroke="none" 
	d="
M428.997894,544.000000 
	C428.997894,535.874390 428.997894,528.248840 428.997894,520.311523 
	C432.958374,520.311523 436.674103,520.311523 440.969727,520.311523 
	C440.969727,532.758850 440.969696,545.169250 440.969696,557.579651 
	C440.969696,569.855286 440.969727,582.130920 440.969727,594.703308 
	C437.000641,594.703308 433.277527,594.703308 428.997894,594.703308 
	C428.997894,577.959106 428.997894,561.229553 428.997894,544.000000 
z"/>
<path fill="#080700" opacity="1.000000" stroke="none" 
	d="
M728.084961,682.075012 
	C726.945862,676.512085 726.028015,671.303955 724.841309,664.570496 
	C722.880554,669.519958 721.049866,673.023682 720.119507,676.751953 
	C718.724670,682.341736 715.469727,683.906189 709.643250,682.328674 
	C708.070435,672.888733 706.444519,663.130432 704.817261,653.363708 
	C713.730042,652.019287 713.695740,652.021057 714.107117,660.013123 
	C714.277771,663.330505 714.622559,666.639282 714.918213,669.949219 
	C714.938416,670.175110 715.211914,670.378418 715.781921,671.161072 
	C717.658386,666.211243 719.607605,661.705627 721.054016,657.044006 
	C722.126282,653.588013 723.993286,652.216003 727.583801,652.523499 
	C731.384705,652.848999 730.759399,655.656982 731.091675,658.011658 
	C731.693359,662.275513 732.296387,666.539124 733.738586,670.943909 
	C735.071289,666.926636 736.859070,662.994080 737.627258,658.871582 
	C738.709106,653.065186 741.854126,651.467712 747.918030,653.050598 
	C746.018982,657.682312 744.113953,662.310852 742.223511,666.945374 
	C740.907227,670.172424 739.195679,673.308899 738.397766,676.661194 
	C737.017822,682.458984 733.712097,684.079163 728.084961,682.075012 
z"/>
<path fill="#070600" opacity="1.000000" stroke="none" 
	d="
M400.199280,682.791504 
	C397.664001,682.929565 395.516418,682.929565 392.942383,682.929565 
	C391.299866,673.065125 389.674500,663.303894 387.956848,652.988342 
	C390.020355,652.988342 391.973755,652.534668 393.534851,653.122620 
	C394.947723,653.654785 396.762482,655.200317 396.957794,656.513550 
	C397.683105,661.389832 397.813171,666.354736 398.948151,671.559448 
	C400.870605,666.572083 403.090363,661.673645 404.615997,656.567749 
	C405.721619,652.867615 408.241943,652.163391 411.032928,653.040100 
	C412.417480,653.475159 413.727661,655.820862 414.090118,657.512390 
	C415.061707,662.046936 415.503845,666.694824 416.903564,671.538818 
	C418.247467,667.419250 419.634308,663.313110 420.925598,659.177124 
	C423.076141,652.288940 423.050323,652.280884 431.122925,653.302124 
	C427.330414,662.727600 423.866241,672.195068 419.556519,681.260620 
	C418.777039,682.900391 414.527802,682.890625 411.328400,683.799194 
	C410.248596,677.395325 409.333344,671.967407 408.193451,665.206970 
	C405.277771,671.894470 402.932373,677.273926 400.199280,682.791504 
z"/>
<path fill="#060600" opacity="1.000000" stroke="none" 
	d="
M963.922180,646.631226 
	C964.282654,643.891785 964.606567,641.596863 964.948730,639.173096 
	C967.752197,639.173096 970.359497,639.173096 973.596924,639.173096 
	C971.817749,653.663269 970.070251,667.895081 968.158752,683.462219 
	C964.727905,682.098572 962.092651,681.051208 959.457458,680.003784 
	C959.615356,679.588745 959.773254,679.173645 959.931152,678.758606 
	C959.646179,678.809509 959.270081,678.760925 959.089722,678.926086 
	C955.600952,682.119751 951.744080,684.583801 947.008545,682.006592 
	C942.179260,679.378357 941.810852,674.399475 942.440979,669.765686 
	C942.941589,666.084717 944.182434,662.269104 946.036194,659.056519 
	C949.855774,652.437073 954.867859,650.938782 962.908875,653.336731 
	C963.239014,651.220459 963.562378,649.148132 963.922180,646.631226 
M961.965942,662.424805 
	C961.430969,661.247070 960.926575,659.090759 960.355286,659.072937 
	C958.554443,659.016418 955.533630,659.274475 955.121826,660.283203 
	C953.450195,664.377686 951.875549,668.760132 951.640076,673.110779 
	C951.464844,676.348999 955.250183,677.318481 957.165833,674.408264 
	C959.344910,671.097900 960.366455,667.025452 961.965942,662.424805 
z"/>
<path fill="#060500" opacity="1.000000" stroke="none" 
	d="
M528.283325,664.477600 
	C532.702148,653.982849 537.979126,651.034058 547.582031,653.780945 
	C547.982178,651.397705 548.452026,649.044861 548.761841,646.671021 
	C549.747375,639.121155 549.724365,639.118164 558.294067,639.954956 
	C556.559814,654.174377 554.826843,668.383423 553.071350,682.777344 
	C549.500610,682.954651 545.664673,684.411316 544.880371,679.024597 
	C544.420898,679.184753 544.028137,679.204529 543.822571,679.410828 
	C540.387695,682.857788 536.346619,684.829163 531.716492,682.482544 
	C527.244141,680.215881 526.946472,675.596802 527.051758,671.205322 
	C527.102661,669.079346 527.756470,666.967834 528.283325,664.477600 
M537.207214,675.765686 
	C539.047424,675.273376 541.825684,675.353882 542.544434,674.176819 
	C544.387146,671.159180 545.566406,667.649658 546.485168,664.196960 
	C546.857361,662.798279 545.939697,659.698853 545.477234,659.672363 
	C543.550232,659.561951 540.919128,659.683411 539.734253,660.888245 
	C535.848083,664.839905 535.046692,669.809265 537.207214,675.765686 
z"/>
<path fill="#060500" opacity="1.000000" stroke="none" 
	d="
M444.615173,654.849548 
	C445.804291,654.259399 446.945465,653.529541 448.190552,653.102600 
	C454.620087,650.897827 459.828400,654.386719 459.556915,661.350220 
	C459.279602,668.464172 458.074188,675.542053 457.256470,682.800659 
	C454.278992,682.800659 451.655457,682.800659 448.382874,682.800659 
	C449.062103,676.758484 449.862915,670.755554 450.329834,664.726746 
	C450.453247,663.133667 449.547089,661.460815 449.113647,659.824585 
	C447.429199,660.631836 444.793732,661.031738 444.240448,662.323486 
	C442.647461,666.042725 441.763275,670.091919 440.858154,674.070068 
	C440.236298,676.803101 440.044037,679.633911 439.619751,682.711365 
	C436.857727,682.711365 434.116089,682.711365 430.728210,682.711365 
	C432.469818,668.301208 434.193512,654.039368 435.919952,639.754639 
	C439.010742,639.754639 441.633545,639.754639 444.777527,639.754639 
	C444.250610,644.229614 443.753845,648.448364 443.196289,653.342407 
	C443.261292,654.576233 443.387054,655.134888 443.512848,655.693481 
	C443.880280,655.412170 444.247742,655.130859 444.615173,654.849548 
z"/>
<path fill="#070600" opacity="1.000000" stroke="none" 
	d="
M661.964844,665.710327 
	C662.482727,661.317383 662.971375,657.374817 663.495728,653.144104 
	C666.376221,653.144104 669.117004,653.144104 672.366760,653.144104 
	C671.689392,658.984436 670.887573,664.697449 670.444824,670.438171 
	C670.310059,672.186523 671.164368,674.011108 671.565735,675.800781 
	C673.362793,674.869568 676.047607,674.379456 676.774597,672.916565 
	C678.348572,669.749023 679.099915,666.121643 679.847412,662.609924 
	C680.499207,659.547729 680.684631,656.386169 681.101624,653.064941 
	C684.021729,653.064941 686.778137,653.064941 690.015076,653.064941 
	C688.811157,662.968628 687.621338,672.756226 686.301819,683.611023 
	C683.004089,682.513123 680.409302,681.649231 677.814514,680.785339 
	C677.949707,680.372986 678.084900,679.960632 678.220093,679.548279 
	C677.928284,679.548279 677.537842,679.424438 677.359253,679.566589 
	C673.678589,682.497803 669.645691,684.769470 665.071716,682.111572 
	C660.423706,679.410767 660.770935,674.701416 661.446899,670.119141 
	C661.640869,668.804260 661.774353,667.480408 661.964844,665.710327 
z"/>
<path fill="#080700" opacity="1.000000" stroke="none" 
	d="
M790.478455,662.480591 
	C788.706848,669.360962 787.189392,675.910156 785.624146,682.665894 
	C783.383789,682.665894 780.909729,682.665894 777.580750,682.665894 
	C778.705017,672.776245 779.818481,662.981628 780.969116,652.859619 
	C784.166260,653.494385 788.330444,650.514404 788.783325,656.360291 
	C789.361450,656.241150 789.717346,656.274658 789.907104,656.112976 
	C793.491943,653.058838 797.466125,650.675964 802.140320,653.068176 
	C807.038025,655.574524 806.567627,660.393738 806.064941,664.943970 
	C805.427063,670.718506 804.714783,676.484863 804.002563,682.527161 
	C801.082642,682.527161 798.362854,682.527161 795.157593,682.527161 
	C795.789734,676.663635 796.521057,670.953491 796.955994,665.220764 
	C797.094666,663.393005 796.445923,661.505554 796.157471,659.645386 
	C794.349243,660.480103 792.540955,661.314758 790.478455,662.480591 
z"/>
<path fill="#060600" opacity="1.000000" stroke="none" 
	d="
M465.184326,680.779419 
	C461.200958,673.525146 462.185242,665.558960 467.557434,659.254150 
	C472.959961,652.913635 481.597290,650.900208 491.290222,654.034302 
	C490.157166,663.420776 489.009827,672.925720 487.699036,683.784485 
	C484.549164,682.680115 481.818787,681.722778 478.146942,680.435364 
	C472.901703,684.320374 470.563324,684.596619 465.184326,680.779419 
M477.537628,659.605591 
	C472.645569,662.461487 471.283691,667.041077 471.758545,672.251282 
	C471.880890,673.593994 473.108002,675.692444 474.111084,675.873596 
	C475.267761,676.082397 477.492737,674.852051 477.940704,673.724915 
	C479.774445,669.110413 481.107727,664.296997 482.862610,658.815491 
	C480.406494,659.023499 479.315277,659.115906 477.537628,659.605591 
z"/>
<path fill="#080700" opacity="1.000000" stroke="none" 
	d="
M772.377136,677.557983 
	C772.105713,679.430237 771.910706,680.879150 771.682007,682.578369 
	C768.311279,682.699280 764.711670,684.184082 763.667725,678.892151 
	C762.560425,679.746948 761.592224,680.581421 760.540283,681.291931 
	C754.445496,685.408997 747.936890,682.575623 746.911499,675.250427 
	C744.675598,659.276917 759.613281,648.075195 775.310486,653.643433 
	C774.369263,661.382629 773.411377,669.258606 772.377136,677.557983 
M755.713623,669.001770 
	C756.463074,671.310181 757.212524,673.618591 757.961853,675.927002 
	C759.805786,674.297668 762.490784,673.006897 763.312256,670.966003 
	C764.850220,667.144958 765.308289,662.889160 766.287415,658.491516 
	C759.458862,659.396484 757.420593,661.472717 755.713623,669.001770 
z"/>
<path fill="#080700" opacity="1.000000" stroke="none" 
	d="
M656.720337,671.526306 
	C652.747864,680.070312 647.326721,683.772583 640.123962,683.088196 
	C635.795166,682.676880 632.654297,680.538269 630.837219,676.543518 
	C626.393494,666.774292 633.319641,653.892883 643.880798,652.283569 
	C650.328186,651.301147 656.097107,654.912781 657.244629,661.339294 
	C657.807068,664.489014 657.034058,667.877258 656.720337,671.526306 
M640.824097,661.473450 
	C640.149231,665.150085 639.210693,668.808228 638.949524,672.513977 
	C638.863892,673.729919 640.404541,675.987183 641.434509,676.133911 
	C642.909363,676.344177 645.537964,675.454651 646.017700,674.328857 
	C647.404846,671.073730 648.281738,667.503113 648.696533,663.978455 
	C648.869141,662.510925 647.679565,659.885437 646.542725,659.512085 
	C645.098022,659.037598 643.077515,660.315979 640.824097,661.473450 
z"/>
<path fill="#080700" opacity="1.000000" stroke="none" 
	d="
M869.117981,681.081543 
	C863.515808,675.921753 862.387512,669.515747 865.496094,662.216187 
	C868.254395,655.739075 874.154968,651.742065 880.644714,651.991943 
	C885.173157,652.166382 888.620911,654.162598 890.677551,658.258728 
	C893.544128,663.967773 891.922791,672.555542 887.073608,677.756897 
	C882.095520,683.096497 876.595276,684.194153 869.117981,681.081543 
M874.932800,661.508301 
	C874.274048,664.861511 873.238647,668.202698 873.130798,671.573486 
	C873.083618,673.046631 874.746460,675.596375 875.972351,675.823364 
	C877.425781,676.092468 880.098450,674.786316 880.727966,673.449524 
	C882.018311,670.709351 882.649780,667.517090 882.856323,664.463867 
	C882.972961,662.739868 882.099609,659.825134 880.964539,659.417480 
	C879.460999,658.877563 877.265320,660.264893 874.932800,661.508301 
z"/>
<path fill="#060500" opacity="1.000000" stroke="none" 
	d="
M584.496216,656.544373 
	C591.103638,668.285950 583.916992,682.870056 571.644897,683.393494 
	C565.286804,683.664795 560.784546,680.202881 559.401428,673.979370 
	C557.806946,666.805359 561.472534,658.268311 567.735901,654.568298 
	C573.228333,651.323730 579.079651,651.924194 584.496216,656.544373 
M568.153931,667.918152 
	C568.115295,669.071350 567.700623,670.388611 568.117249,671.343140 
	C568.955139,673.262817 570.246155,674.984802 571.350220,676.788330 
	C573.142883,675.569702 575.892456,674.714050 576.522095,673.054260 
	C577.704041,669.938293 577.943420,666.360352 577.978821,662.968384 
	C577.991882,661.717346 576.531433,659.724976 575.363159,659.388062 
	C574.151245,659.038513 571.947083,659.871094 571.128479,660.925476 
	C569.771729,662.672974 569.177185,665.012146 568.153931,667.918152 
z"/>
<path fill="#070600" opacity="1.000000" stroke="none" 
	d="
M606.958923,671.277344 
	C606.682251,670.244812 606.448181,669.620605 606.275757,668.979736 
	C604.897827,663.858582 603.531677,658.734192 602.161682,653.610107 
	C610.451294,651.517883 611.106567,651.902527 612.730774,659.809082 
	C613.318970,662.672668 613.877869,665.542236 615.502075,668.559326 
	C616.883484,665.492859 618.299744,662.441467 619.639221,659.356750 
	C622.705322,652.295654 622.690125,652.289062 631.135864,653.302185 
	C624.775269,665.635010 618.740845,677.944031 611.980713,689.840637 
	C610.860535,691.811951 606.570129,691.981750 603.356140,692.372253 
	C606.026428,685.326233 611.766846,679.458740 606.958923,671.277344 
z"/>
<path fill="#080700" opacity="1.000000" stroke="none" 
	d="
M974.274963,669.167725 
	C975.370117,660.922058 978.724426,654.711853 986.878296,652.613831 
	C989.444397,651.953491 992.838440,651.860535 995.015564,653.046326 
	C997.440796,654.367310 1000.146973,657.302063 1000.428894,659.794617 
	C1000.681213,662.025818 998.359192,665.627319 996.184692,666.815430 
	C992.382385,668.893005 987.822266,669.583679 983.504028,670.878235 
	C983.936951,676.184387 987.181702,677.912292 992.670227,674.885742 
	C995.834961,673.140442 997.901428,673.315918 999.579041,676.531799 
	C995.614075,681.858215 989.084290,684.237061 983.052979,682.479309 
	C976.598206,680.598083 974.457214,675.725769 974.274963,669.167725 
M991.031433,662.744080 
	C991.369385,661.483459 991.707336,660.222839 992.045227,658.962158 
	C991.016541,658.690002 989.564758,657.850708 989.034241,658.246399 
	C987.023315,659.746338 985.310730,661.646240 983.486572,663.396484 
	C983.818970,663.842102 984.151367,664.287659 984.483826,664.733276 
	C986.447388,664.173523 988.410950,663.613770 991.031433,662.744080 
z"/>
<path fill="#0F0D00" opacity="1.000000" stroke="none" 
	d="
M347.707397,632.275513 
	C356.361511,640.734924 358.836792,652.093384 354.427124,662.132141 
	C350.059509,672.075134 339.378082,678.618225 328.861755,677.792542 
	C317.615662,676.909668 308.636261,669.700867 305.571289,659.057129 
	C305.252441,657.949829 304.928162,656.789307 304.948151,655.659546 
	C304.960205,654.977905 305.656097,653.733398 306.003082,653.747803 
	C306.821777,653.781677 307.948273,654.212402 308.345093,654.855835 
	C309.019501,655.949402 309.192932,657.342773 309.637878,658.588379 
	C313.306641,668.858643 323.133820,675.067139 333.297913,673.551575 
	C344.145844,671.934021 351.999207,663.318298 352.458374,652.531189 
	C352.908356,641.958435 345.603516,632.754150 334.876526,630.110657 
	C333.298981,629.721985 331.931519,628.480957 330.863831,626.885803 
	C337.485870,625.723938 342.743683,628.064453 347.707397,632.275513 
z"/>
<path fill="#060500" opacity="1.000000" stroke="none" 
	d="
M850.071045,648.087158 
	C851.993530,643.400635 851.993530,643.400635 857.844788,644.378784 
	C857.560791,646.817322 857.275635,649.265564 856.943665,652.115479 
	C859.017212,652.370361 860.893066,652.600952 863.256958,652.891541 
	C863.139709,654.688354 863.027344,656.410889 862.897278,658.404785 
	C860.623352,658.404785 858.671143,658.404785 856.289062,658.404785 
	C855.597961,663.490845 854.845825,668.346619 854.365051,673.229126 
	C854.284180,674.049927 855.187927,675.241577 855.965820,675.817200 
	C857.703796,677.103394 859.649231,678.109253 861.510193,679.229248 
	C861.280029,679.779053 861.049866,680.328857 860.819702,680.878662 
	C858.647278,681.567627 856.518555,682.585022 854.293823,682.881470 
	C848.559204,683.645630 845.044495,680.183411 845.513977,674.424316 
	C845.783630,671.117432 846.384888,667.836121 846.614990,664.527832 
	C846.776489,662.204651 848.479858,659.337036 844.488647,658.069275 
	C843.868652,657.872314 844.055969,655.133728 843.869934,653.570496 
	C844.359985,653.805664 844.850037,654.040833 845.340088,654.276001 
	C846.880859,652.337585 848.421692,650.399170 850.071045,648.087158 
z"/>
<path fill="#070600" opacity="1.000000" stroke="none" 
	d="
M507.777527,682.880371 
	C498.147034,684.161316 495.195312,681.114380 496.524231,671.860901 
	C497.088440,667.932312 497.472290,663.977783 497.848602,660.792603 
	C496.473480,659.055420 494.639832,657.736267 494.758881,656.626587 
	C494.895020,655.357910 496.846771,654.340210 497.863770,653.094482 
	C498.923981,651.795837 500.382843,650.462891 500.665497,648.956848 
	C501.521545,644.396057 504.083435,643.456543 508.385162,644.556824 
	C508.216034,647.270142 508.054291,649.864563 507.876617,652.715149 
	C509.933655,652.876343 511.850769,653.026550 514.103638,653.203064 
	C513.982666,655.104004 513.871582,656.850037 513.747375,658.802551 
	C511.568024,658.917236 509.604340,659.020569 506.971558,659.159058 
	C506.290039,664.499634 505.593018,669.961731 505.049408,674.221619 
	C507.939789,676.485352 510.020355,678.114807 512.793640,680.286743 
	C510.394836,681.573425 509.266846,682.178528 507.777527,682.880371 
z"/>
<path fill="#070600" opacity="1.000000" stroke="none" 
	d="
M817.511597,645.195679 
	C819.605103,644.469482 821.464050,644.084167 824.110413,643.535706 
	C823.821960,646.847900 823.588684,649.527039 823.330139,652.495239 
	C825.520081,652.719238 827.426880,652.914307 829.751221,653.152039 
	C829.473877,655.077393 829.225220,656.803772 828.959473,658.648865 
	C826.744690,658.770935 824.785828,658.878906 822.389465,659.010986 
	C821.747559,664.413818 821.112427,669.759949 820.601013,674.065125 
	C823.400208,676.271179 825.504211,677.929321 827.608215,679.587463 
	C827.420471,680.141418 827.232727,680.695374 827.044983,681.249329 
	C824.567261,681.883545 822.113464,682.919373 819.606873,683.068604 
	C814.308960,683.384155 811.468201,680.515930 811.776672,675.200806 
	C812.074158,670.074036 812.806335,664.972534 813.274292,660.552185 
	C811.949463,658.883728 810.150452,657.602905 810.220215,656.433533 
	C810.292419,655.222534 812.390808,654.254822 813.222412,652.940002 
	C814.723572,650.566772 815.941101,648.014221 817.511597,645.195679 
z"/>
<path fill="#0F0D00" opacity="1.000000" stroke="none" 
	d="
M176.232605,650.767456 
	C176.645355,647.220459 176.853592,644.036987 177.701904,641.034302 
	C178.087677,639.668884 179.740112,638.661316 180.817978,637.491455 
	C180.988052,639.121399 181.612274,640.860291 181.251556,642.362854 
	C179.444244,649.890869 180.327576,656.899536 184.738815,663.324524 
	C194.417908,677.422180 215.157516,677.689758 225.215286,663.870850 
	C225.801208,663.065857 226.137131,661.968750 226.890533,661.424072 
	C227.805634,660.762390 229.040665,660.543213 230.137299,660.132568 
	C230.145676,661.296692 230.596436,662.716797 230.093842,663.585083 
	C225.189117,672.058105 217.826981,676.996277 208.055023,678.003723 
	C192.320419,679.625854 177.509766,668.084351 176.232605,650.767456 
z"/>
<path fill="#060500" opacity="1.000000" stroke="none" 
	d="
M907.891357,668.522705 
	C908.561401,662.994690 909.195618,657.914551 909.811768,652.978577 
	C913.840820,652.133850 917.235046,651.758301 917.969971,656.090149 
	C920.839783,654.536316 923.581299,653.051819 926.322876,651.567383 
	C926.721130,651.921448 927.119324,652.275513 927.517517,652.629578 
	C927.166443,655.153625 926.815369,657.677612 926.405090,660.627197 
	C919.667664,659.395935 917.754761,663.770020 916.759216,668.744934 
	C915.884216,673.117188 915.515015,677.590576 914.906616,682.137085 
	C911.965332,682.137085 909.242249,682.137085 906.253540,682.137085 
	C906.815674,677.516602 907.335571,673.243652 907.891357,668.522705 
z"/>
<path fill="#080700" opacity="1.000000" stroke="none" 
	d="
M1015.285767,639.871887 
	C1020.140076,639.769714 1023.961121,640.946350 1025.706543,645.560913 
	C1027.276978,649.712280 1025.370850,654.443787 1021.514282,657.976562 
	C1018.816772,660.447571 1016.603088,663.446716 1014.905640,667.166626 
	C1013.158508,667.166626 1011.411377,667.166626 1009.440308,667.166626 
	C1008.057373,662.738098 1009.307678,659.198608 1013.092468,656.463562 
	C1013.899780,655.880188 1015.045349,655.428284 1015.407532,654.630798 
	C1016.354675,652.545349 1016.954529,650.302246 1017.692871,648.122070 
	C1015.574402,647.851257 1012.973145,646.668701 1011.430603,647.485657 
	C1007.289978,649.678162 1006.197815,647.455078 1004.783264,643.342834 
	C1008.211060,642.177856 1011.559082,641.040039 1015.285767,639.871887 
z"/>
<path fill="#060500" opacity="1.000000" stroke="none" 
	d="
M937.552612,671.799561 
	C937.077942,675.499390 936.672241,678.759949 936.242737,682.212158 
	C933.423401,682.212158 930.979004,682.212158 927.589539,682.212158 
	C928.698975,672.471802 929.809326,662.723206 930.937134,652.821716 
	C934.033020,652.821716 936.770691,652.821716 939.767212,652.821716 
	C939.028687,659.203186 938.325195,665.281738 937.552612,671.799561 
z"/>
<path fill="#080700" opacity="1.000000" stroke="none" 
	d="
M933.196411,640.075684 
	C937.001648,638.023682 939.672424,639.007568 941.066528,642.547119 
	C942.230469,645.502380 940.830688,647.856384 937.997192,648.889954 
	C934.883728,650.025574 932.168945,648.833862 931.409241,645.618469 
	C931.039551,644.053589 932.341003,642.093994 933.196411,640.075684 
z"/>
<path fill="#0F0D00" opacity="1.000000" stroke="none" 
	d="
M1016.314941,677.941956 
	C1015.928467,681.525818 1013.763367,683.352661 1010.921631,682.720215 
	C1009.121582,682.319580 1006.874390,680.150269 1006.481018,678.402161 
	C1006.166321,677.003479 1007.968079,674.158691 1009.491333,673.511780 
	C1012.997620,672.022644 1015.531738,673.717163 1016.314941,677.941956 
z"/>
<path fill="#030300" opacity="1.000000" stroke="none" 
	d="
M252.168839,538.492249 
	C258.697662,538.492310 264.751984,538.492310 270.806305,538.492310 
	C270.798279,538.970459 270.790283,539.448547 270.782257,539.926697 
	C261.694122,539.926697 252.606003,539.926697 243.517883,539.926697 
	C243.510971,539.448547 243.504059,538.970337 243.497147,538.492188 
	C246.229538,538.492188 248.961945,538.492188 252.168839,538.492249 
z"/>
<path fill="#262200" opacity="1.000000" stroke="none" 
	d="
M234.685715,548.460327 
	C242.401215,548.458679 249.687531,548.458679 256.973846,548.458679 
	C256.957184,549.027649 256.940491,549.596680 256.923828,550.165649 
	C248.450134,550.165649 239.976440,550.165649 231.502747,550.165649 
	C231.458237,549.851562 231.413712,549.537415 231.369202,549.223328 
	C232.331650,548.969543 233.294083,548.715820 234.685715,548.460327 
z"/>
<path fill="#262200" opacity="1.000000" stroke="none" 
	d="
M267.836487,528.374023 
	C273.111176,528.356323 277.966492,528.356323 282.821777,528.356323 
	C282.820862,528.871582 282.819946,529.386841 282.819031,529.902100 
	C277.020294,529.902100 271.221558,529.902100 263.919434,529.902100 
	C266.005524,529.001221 266.711334,528.696411 267.836487,528.374023 
z"/>
<path fill="#262200" opacity="1.000000" stroke="none" 
	d="
M281.603333,638.656982 
	C283.071350,638.866821 284.105347,639.075684 285.139313,639.284546 
	C285.112793,639.619446 285.086273,639.954407 285.059753,640.289368 
	C280.647156,640.289368 276.234589,640.289368 271.822021,640.289368 
	C271.807495,639.744934 271.792969,639.200500 271.778442,638.656067 
	C274.908722,638.656067 278.039032,638.656067 281.603333,638.656982 
z"/>
<path fill="#EFD103" opacity="1.000000" stroke="none" 
	d="
M267.428650,623.435913 
	C265.560669,626.421692 263.882111,629.100342 262.263550,631.814758 
	C258.694763,637.799744 258.800354,637.678345 264.551849,641.842102 
	C266.575500,643.307129 269.731995,646.926941 269.463684,647.266724 
	C266.557404,650.946777 263.978668,647.351746 261.384094,646.211426 
	C258.352997,644.879272 255.638748,642.812500 252.588242,641.541687 
	C248.750687,639.942871 249.081482,637.872192 250.416290,634.507690 
	C254.076385,625.282227 257.276611,615.873291 260.587463,606.511658 
	C261.012787,605.309021 261.015350,603.956848 261.311920,602.039124 
	C257.330048,602.525330 253.792999,603.168274 250.232849,603.344543 
	C244.261383,603.640259 238.272751,603.806641 232.295792,603.720032 
	C224.750595,603.610718 215.026352,592.041626 220.411621,584.746033 
	C222.098068,585.897827 223.727280,587.204529 225.532379,588.188660 
	C227.321152,589.163757 229.287201,589.813660 231.705994,589.612488 
	C228.314163,587.322144 224.922318,585.031799 220.771820,582.229187 
	C222.995651,579.956299 224.381561,577.737976 226.382339,576.624634 
	C239.573608,569.284546 252.889755,562.168457 266.184479,555.015137 
	C268.650940,553.688049 270.519562,553.879150 271.416046,557.087097 
	C271.996613,559.164490 273.105804,561.094238 274.560120,563.165039 
	C272.275665,554.184326 278.492676,550.482300 284.410187,547.430298 
	C288.816925,545.157471 293.576904,546.889465 297.365295,550.142273 
	C302.834198,554.838013 302.922058,560.914917 301.752319,568.064087 
	C299.702728,566.258850 298.175659,564.913879 296.648560,563.568848 
	C296.303314,563.844299 295.958069,564.119690 295.612823,564.395142 
	C297.380127,566.601562 299.147430,568.807983 300.914734,571.014404 
	C300.684509,571.343689 300.454285,571.672974 300.224060,572.002197 
	C298.652893,571.131897 297.081696,570.261658 295.510498,569.391357 
	C295.239288,569.662415 294.968048,569.933472 294.696838,570.204529 
	C296.058807,571.631226 297.420807,573.057922 299.475311,575.210083 
	C296.432739,577.999207 293.395142,580.783752 289.719116,584.153564 
	C286.958405,579.175476 284.740753,575.176575 281.719635,569.729004 
	C280.769958,572.180054 279.975586,573.718140 279.611572,575.352051 
	C279.373901,576.418884 280.159882,577.769531 279.805786,578.745911 
	C276.514954,587.820007 281.416718,592.021545 288.936249,595.248535 
	C294.407318,597.596375 299.551361,600.706238 304.997803,603.558472 
	C302.889648,606.836914 300.441010,607.279236 297.013428,605.734802 
	C290.423187,602.765381 283.675842,600.144592 276.225159,597.624451 
	C280.964233,604.747498 277.318756,609.816589 273.292542,614.916809 
	C271.235931,617.522034 269.516937,620.393738 267.428650,623.435913 
z"/>
<path fill="#E6CA03" opacity="1.000000" stroke="none" 
	d="
M322.326294,664.530029 
	C322.468353,662.840210 322.205078,660.980225 322.829437,659.492859 
	C324.616394,655.235840 323.796204,652.164307 319.606476,650.016907 
	C318.479156,649.439148 317.540894,648.492371 315.197998,646.715515 
	C318.632416,646.715515 320.668488,646.810364 322.692200,646.692871 
	C325.568695,646.525696 326.804718,647.471680 326.926056,650.641296 
	C326.990295,652.319763 328.548218,654.245789 329.968353,655.399780 
	C330.455536,655.795654 333.739624,654.155457 333.723145,653.496033 
	C333.677765,651.679932 333.027191,649.426575 331.781891,648.178467 
	C328.169220,644.557800 327.858704,640.845337 330.821655,635.771667 
	C331.862183,644.190552 335.516235,648.980042 344.976166,646.942627 
	C337.252838,650.962097 335.282104,656.315186 339.522095,664.178833 
	C333.411560,658.041016 327.944763,658.056641 322.463318,664.206543 
	C322.284332,664.475586 322.326294,664.530029 322.326294,664.530029 
z"/>
<path fill="#DEC203" opacity="1.000000" stroke="none" 
	d="
M346.224182,652.214783 
	C345.117615,655.890137 344.037445,659.154968 342.957245,662.419800 
	C338.321259,654.718811 338.610046,653.250610 344.181580,650.642639 
	C344.598602,650.447449 345.548431,651.390442 346.224182,652.214783 
z"/>
<path fill="#DEC203" opacity="1.000000" stroke="none" 
	d="
M315.100708,655.447998 
	C314.940460,653.464111 314.852142,651.875854 314.751282,650.062500 
	C322.713074,653.581299 322.863068,654.011108 318.954193,663.131470 
	C317.493927,660.317322 316.333252,658.080505 315.100708,655.447998 
z"/>
<path fill="#DEC203" opacity="1.000000" stroke="none" 
	d="
M327.879700,667.259521 
	C326.447876,666.838257 325.389221,666.460388 324.237579,666.049316 
	C329.696777,659.895569 330.231049,659.876465 337.914673,666.476257 
	C333.970001,666.813782 331.111420,667.058350 327.879700,667.259521 
z"/>
<path fill="#DEC203" opacity="1.000000" stroke="none" 
	d="
M343.585541,643.511230 
	C336.324097,646.123352 335.330444,645.477600 333.513306,636.995605 
	C338.214630,636.995667 340.884949,640.017639 343.585541,643.511230 
z"/>
<path fill="#DEC203" opacity="1.000000" stroke="none" 
	d="
M323.220581,641.178528 
	C323.652679,642.413513 323.931274,643.299805 324.306091,644.492004 
	C321.790710,644.492004 319.701782,644.492004 317.589203,644.492004 
	C319.333405,639.702942 320.504578,638.929565 323.220581,641.178528 
z"/>
<path fill="#F3D503" opacity="1.000000" stroke="none" 
	d="
M305.446686,588.206116 
	C305.697632,588.218445 305.751160,588.412964 305.804688,588.607544 
	C305.619537,588.534485 305.434418,588.461426 305.446686,588.206116 
z"/>
<path fill="#E6CA03" opacity="1.000000" stroke="none" 
	d="
M322.290955,664.510254 
	C322.193024,664.479126 322.088470,664.413330 322.155121,664.438843 
	C322.326294,664.530029 322.284332,664.475586 322.290955,664.510254 
z"/>
<path fill="#EFD103" opacity="1.000000" stroke="none" 
	d="
M410.240509,578.581299 
	C408.759125,586.416748 402.932739,583.444214 398.174225,584.248901 
	C398.174225,576.603394 398.174225,569.233826 398.174225,561.850159 
	C407.200623,559.859253 410.197449,562.124939 410.355438,571.144531 
	C410.396210,573.471680 410.314026,575.800903 410.240509,578.581299 
z"/>
<path fill="#EFD103" opacity="1.000000" stroke="none" 
	d="
M402.658508,530.862732 
	C407.341003,530.869324 408.888123,533.424561 409.094025,537.210693 
	C409.165833,538.531128 409.164093,539.857300 409.149994,541.180359 
	C409.062683,549.369507 406.986694,551.111023 398.087921,550.133545 
	C398.087921,543.994141 398.087921,537.799988 398.087921,531.187561 
	C399.369171,531.085693 400.788849,530.972900 402.658508,530.862732 
z"/>
<path fill="#E6CA03" opacity="1.000000" stroke="none" 
	d="
M214.400131,651.659668 
	C215.586166,655.207520 216.796234,658.346375 218.006302,661.485291 
	C210.180298,657.302734 203.612122,657.291260 198.369644,665.526001 
	C198.369644,661.627075 199.655685,657.020142 198.008560,654.027954 
	C196.355759,651.025330 191.778610,649.632507 188.136276,647.313354 
	C193.421783,646.202209 198.316711,645.173157 202.868515,644.216248 
	C202.468170,646.976013 201.805573,649.148804 202.037109,651.221741 
	C202.120285,651.966431 204.802414,653.303833 205.523010,652.918945 
	C207.271606,651.984985 208.565018,650.198730 210.753784,648.060303 
	C211.412384,648.632812 212.918274,649.941833 214.400131,651.659668 
z"/>
<path fill="#E6CA03" opacity="1.000000" stroke="none" 
	d="
M194.679565,663.454285 
	C190.329819,660.058716 187.928177,656.058594 187.828156,650.609009 
	C197.673584,653.745667 198.901184,656.088928 194.679565,663.454285 
z"/>
<path fill="#DEC203" opacity="1.000000" stroke="none" 
	d="
M209.302704,666.566650 
	C206.806122,666.816589 204.693649,666.923401 202.436203,667.037476 
	C205.221069,659.815918 207.966690,659.173706 214.746475,664.365051 
	C212.865646,665.130188 211.276230,665.776855 209.302704,666.566650 
z"/>
<path fill="#DEC203" opacity="1.000000" stroke="none" 
	d="
M189.263062,641.397156 
	C193.216553,636.515625 195.015289,642.802856 198.140823,641.823364 
	C198.133240,642.319397 198.125671,642.815491 198.118103,643.311523 
	C194.890808,643.869934 191.663528,644.428406 188.008194,645.060852 
	C188.488480,643.576233 188.788315,642.649414 189.263062,641.397156 
z"/>
<path fill="#DEC203" opacity="1.000000" stroke="none" 
	d="
M219.852722,658.494507 
	C218.403564,656.458130 217.251724,654.234131 216.099884,652.010071 
	C216.383224,651.705444 216.666550,651.400818 216.949890,651.096252 
	C218.616974,651.782837 220.284058,652.469482 222.464554,653.367554 
	C221.598267,655.216248 220.874146,656.761536 219.852722,658.494507 
z"/>
<path fill="#E9CC03" opacity="1.000000" stroke="none" 
	d="
M961.928589,662.854492 
	C960.366455,667.025452 959.344910,671.097900 957.165833,674.408264 
	C955.250183,677.318481 951.464844,676.348999 951.640076,673.110779 
	C951.875549,668.760132 953.450195,664.377686 955.121826,660.283203 
	C955.533630,659.274475 958.554443,659.016418 960.355286,659.072937 
	C960.926575,659.090759 961.430969,661.247070 961.928589,662.854492 
z"/>
<path fill="#E6CA03" opacity="1.000000" stroke="none" 
	d="
M536.991333,675.444092 
	C535.046692,669.809265 535.848083,664.839905 539.734253,660.888245 
	C540.919128,659.683411 543.550232,659.561951 545.477234,659.672363 
	C545.939697,659.698853 546.857361,662.798279 546.485168,664.196960 
	C545.566406,667.649658 544.387146,671.159180 542.544434,674.176819 
	C541.825684,675.353882 539.047424,675.273376 536.991333,675.444092 
z"/>
<path fill="#F3D503" opacity="1.000000" stroke="none" 
	d="
M444.310791,654.506470 
	C444.247742,655.130859 443.880280,655.412170 443.512848,655.693481 
	C443.387054,655.134888 443.261292,654.576233 443.257507,653.755737 
	C443.588440,653.717041 443.797424,653.940186 444.310791,654.506470 
z"/>
<path fill="#E9CC03" opacity="1.000000" stroke="none" 
	d="
M477.880859,659.406921 
	C479.315277,659.115906 480.406494,659.023499 482.862610,658.815491 
	C481.107727,664.296997 479.774445,669.110413 477.940704,673.724915 
	C477.492737,674.852051 475.267761,676.082397 474.111084,675.873596 
	C473.108002,675.692444 471.880890,673.593994 471.758545,672.251282 
	C471.283691,667.041077 472.645569,662.461487 477.880859,659.406921 
z"/>
<path fill="#E6CA03" opacity="1.000000" stroke="none" 
	d="
M755.768494,668.620117 
	C757.420593,661.472717 759.458862,659.396484 766.287415,658.491516 
	C765.308289,662.889160 764.850220,667.144958 763.312256,670.966003 
	C762.490784,673.006897 759.805786,674.297668 757.961914,675.927002 
	C757.212524,673.618591 756.463074,671.310181 755.768494,668.620117 
z"/>
<path fill="#E9CC03" opacity="1.000000" stroke="none" 
	d="
M641.064697,661.156006 
	C643.077515,660.315979 645.098022,659.037598 646.542725,659.512085 
	C647.679565,659.885437 648.869141,662.510925 648.696533,663.978455 
	C648.281738,667.503113 647.404846,671.073730 646.017700,674.328857 
	C645.537964,675.454651 642.909363,676.344177 641.434509,676.133911 
	C640.404541,675.987183 638.863892,673.729919 638.949524,672.513977 
	C639.210693,668.808228 640.149231,665.150085 641.064697,661.156006 
z"/>
<path fill="#EFD103" opacity="1.000000" stroke="none" 
	d="
M875.149963,661.166138 
	C877.265320,660.264893 879.460999,658.877563 880.964539,659.417480 
	C882.099609,659.825134 882.972961,662.739868 882.856323,664.463867 
	C882.649780,667.517090 882.018311,670.709351 880.727966,673.449524 
	C880.098450,674.786316 877.425781,676.092468 875.972351,675.823364 
	C874.746460,675.596375 873.083618,673.046631 873.130798,671.573486 
	C873.238647,668.202698 874.274048,664.861511 875.149963,661.166138 
z"/>
<path fill="#E9CC03" opacity="1.000000" stroke="none" 
	d="
M568.207764,667.510132 
	C569.177185,665.012146 569.771729,662.672974 571.128479,660.925476 
	C571.947083,659.871094 574.151245,659.038513 575.363159,659.388062 
	C576.531433,659.724976 577.991882,661.717346 577.978821,662.968384 
	C577.943420,666.360352 577.704041,669.938293 576.522095,673.054260 
	C575.892456,674.714050 573.142883,675.569702 571.350220,676.788330 
	C570.246155,674.984802 568.955139,673.262817 568.117249,671.343140 
	C567.700623,670.388611 568.115295,669.071350 568.207764,667.510132 
z"/>
<path fill="#DEC203" opacity="1.000000" stroke="none" 
	d="
M990.703003,662.899048 
	C988.410950,663.613770 986.447388,664.173523 984.483826,664.733276 
	C984.151367,664.287659 983.818970,663.842102 983.486572,663.396484 
	C985.310730,661.646240 987.023315,659.746338 989.034241,658.246399 
	C989.564758,657.850708 991.016541,658.690002 992.045288,658.962158 
	C991.707336,660.222839 991.369385,661.483459 990.703003,662.899048 
z"/>
</svg>